<svg width="48" height="48" viewBox="0 0 48 48" fill="none" xmlns="http://www.w3.org/2000/svg">
<circle cx="24" cy="24" r="24" fill="#F1F8F7"/>
<circle cx="23.6665" cy="24" r="10" fill="#BCEBE8"/>
<path fill-rule="evenodd" clip-rule="evenodd" d="M40.4037 21.4022C41.2715 22.6781 41.5607 23.923 40.4037 24.8799C37.4357 27.4664 35.9908 27.9112 34.2122 28.1131C33.0496 28.2451 31.786 28.1031 30.9347 28.0075C30.6769 27.9785 30.4569 27.9538 30.289 27.9422C28.8455 27.8427 27.7485 26.4717 27.8387 24.8799C27.9289 23.2881 29.1722 22.0784 30.6157 22.1779C31.2115 22.2189 31.6545 22.2707 32.025 22.3139C32.6531 22.3873 33.3411 22.2463 33.944 22.1779C34.6387 22.099 36.01 21.4261 37.4357 20.2469C38.5927 19.29 39.5359 20.1263 40.4037 21.4022Z" fill="#BCEBE8"/>
<circle cx="28.6667" cy="22.3334" r="1.66667" fill="#363636"/>
<circle cx="29.0832" cy="21.9167" r="0.416667" fill="white"/>
<path d="M20.6223 17.4268C21.4326 17.7467 21.6827 18.7119 21.2719 19.4801L19.7697 22.2892C19.3848 23.0089 18.5355 23.3278 17.7283 23.2071C17.2722 23.1389 16.7951 23.1048 16.2969 23.1048C14.8294 23.1048 14.0956 23.4968 14.0956 24.281C14.0956 24.6563 14.3003 24.9511 14.7099 25.1656C15.1195 25.3734 15.7031 25.4772 16.4608 25.4772C16.8334 25.4772 17.187 25.4533 17.5216 25.4054C18.4288 25.2754 19.4326 25.5965 19.8415 26.4166L21.3064 29.3541C21.697 30.1375 21.4158 31.099 20.5988 31.4131C20.1162 31.5986 19.5935 31.7613 19.0307 31.9011C17.8703 32.1892 16.7611 32.3333 15.7031 32.3333C13.0478 32.3333 10.9317 31.5827 9.35495 30.0815C7.78498 28.5735 7 26.7205 7 24.5222C7 22.1966 7.81911 20.2799 9.45734 18.772C11.0956 17.2573 13.1775 16.5 15.7031 16.5C16.7952 16.5 17.9215 16.6474 19.0819 16.9423C19.6398 17.0801 20.1533 17.2415 20.6223 17.4268Z" fill="#29C4BA"/>
</svg>
