<svg width="12" height="12" viewBox="0 0 12 12" fill="none" xmlns="http://www.w3.org/2000/svg">
<path fill-rule="evenodd" clip-rule="evenodd" d="M9.86983 2.13017C10.0434 2.30374 10.0434 2.58515 9.86983 2.75871L2.75871 9.86983C2.58515 10.0434 2.30374 10.0434 2.13017 9.86983C1.95661 9.69626 1.95661 9.41485 2.13017 9.24129L9.24129 2.13017C9.41485 1.95661 9.69626 1.95661 9.86983 2.13017Z" fill="#FF9B52"/>
<path fill-rule="evenodd" clip-rule="evenodd" d="M2.13017 2.13017C2.30374 1.95661 2.58515 1.95661 2.75871 2.13017L9.86983 9.24129C10.0434 9.41485 10.0434 9.69626 9.86983 9.86983C9.69626 10.0434 9.41485 10.0434 9.24129 9.86983L2.13017 2.75871C1.95661 2.58515 1.95661 2.30374 2.13017 2.13017Z" fill="#FF9B52"/>
</svg>
