<svg xmlns="http://www.w3.org/2000/svg"><symbol id="image" viewBox="0 0 18 18"><path fill="#505050" fill-rule="evenodd" d="M4.8 4.2a.6.6 0 0 0-.6.6v8.4a.6.6 0 0 0 .6.6h8.4a.6.6 0 0 0 .6-.6V4.8a.6.6 0 0 0-.6-.6H4.8zM3 4.8A1.8 1.8 0 0 1 4.8 3h8.4A1.8 1.8 0 0 1 15 4.8v8.4a1.8 1.8 0 0 1-1.8 1.8H4.8A1.8 1.8 0 0 1 3 13.2V4.8z" clip-rule="evenodd"/><path fill="#505050" fill-rule="evenodd" d="M2.813 4.8c0-1.098.89-1.987 1.987-1.987h8.4c1.098 0 1.988.89 1.988 1.987v8.4c0 1.098-.89 1.988-1.988 1.988H4.8A1.987 1.987 0 0 1 2.813 13.2V4.8zM4.8 3.188c-.89 0-1.612.721-1.612 1.612v8.4c0 .89.721 1.613 1.612 1.613h8.4c.89 0 1.613-.722 1.613-1.613V4.8c0-.89-.722-1.612-1.613-1.612H4.8zm0 1.2a.412.412 0 0 0-.412.412v8.4c0 .228.184.413.412.413h8.4a.413.413 0 0 0 .413-.413V4.8a.413.413 0 0 0-.413-.412H4.8zm-.787.412c0-.435.352-.787.787-.787h8.4c.435 0 .788.352.788.787v8.4a.788.788 0 0 1-.788.788H4.8a.788.788 0 0 1-.787-.788V4.8z" clip-rule="evenodd"/><path fill="#505050" fill-rule="evenodd" d="M6.9 6.6a.3.3 0 1 0 0 .6.3.3 0 0 0 0-.6zm-1.5.3a1.5 1.5 0 1 1 3 0 1.5 1.5 0 0 1-3 0z" clip-rule="evenodd"/><path fill="#505050" fill-rule="evenodd" d="M5.213 6.9a1.688 1.688 0 1 1 3.375 0 1.688 1.688 0 0 1-3.375 0zM6.9 5.588a1.313 1.313 0 1 0 0 2.625 1.313 1.313 0 0 0 0-2.625zm0 1.2a.113.113 0 1 0 0 .225.113.113 0 0 0 0-.225zm-.487.112a.487.487 0 1 1 .975 0 .487.487 0 0 1-.975 0zm4.563.475a.6.6 0 0 1 .849 0l3 3a.6.6 0 0 1-.849.848L11.4 8.648l-6.175 6.175a.6.6 0 0 1-.849-.848l6.6-6.6z" clip-rule="evenodd"/><path fill="#505050" fill-rule="evenodd" d="M10.844 7.242a.788.788 0 0 1 1.113 0l3 3a.788.788 0 0 1-1.113 1.114L11.4 8.913l-6.043 6.043a.788.788 0 0 1-1.113-1.114l6.6-6.6zm.848.266a.412.412 0 0 0-.583 0l-6.6 6.6a.413.413 0 0 0 .583.583l6.176-6.176a.187.187 0 0 1 .265 0l2.576 2.576a.412.412 0 1 0 .583-.583l-3-3z" clip-rule="evenodd"/></symbol><symbol id="italic" viewBox="0 0 18 18"><path fill="#505050" fill-rule="evenodd" d="M7.313 4.5a.75.75 0 0 1 .75-.75h5.062a.75.75 0 0 1 0 1.5H8.062a.75.75 0 0 1-.75-.75z" clip-rule="evenodd"/><path fill="#505050" fill-rule="evenodd" d="M7.125 4.5c0-.518.42-.938.938-.938h5.062a.937.937 0 1 1 0 1.876H8.062a.937.937 0 0 1-.937-.938zm.938-.563a.563.563 0 0 0 0 1.126h5.062a.562.562 0 1 0 0-1.125H8.062zM4.5 13.5a.75.75 0 0 1 .75-.75h5.063a.75.75 0 0 1 0 1.5H5.25a.75.75 0 0 1-.75-.75z" clip-rule="evenodd"/><path fill="#505050" fill-rule="evenodd" d="M4.313 13.5c0-.518.42-.938.937-.938h5.063a.937.937 0 1 1 0 1.876H5.25a.937.937 0 0 1-.938-.938zm.937-.563a.562.562 0 1 0 0 1.126h5.063a.562.562 0 1 0 0-1.126H5.25z" clip-rule="evenodd"/><path fill="#505050" fill-rule="evenodd" d="M11.139 3.798a.75.75 0 0 1 .438.966l-3.375 9a.75.75 0 1 1-1.404-.527l3.375-9a.75.75 0 0 1 .966-.439z" clip-rule="evenodd"/><path fill="#505050" fill-rule="evenodd" d="M9.997 4.171a.937.937 0 1 1 1.756.658l-3.375 9a.938.938 0 1 1-1.756-.658l3.375-9zm1.076-.197a.562.562 0 0 0-.724.329l-3.375 9a.562.562 0 0 0 1.053.395l3.375-9a.563.563 0 0 0-.33-.724z" clip-rule="evenodd"/></symbol><symbol id="quote" viewBox="0 0 18 18"><path fill="#505050" d="M9.865 7.426c0-.602.21-1.111.63-1.528.42-.432.933-.648 1.54-.648.31 0 .598.07.862.208.28.124.513.301.7.533.202.231.357.501.466.81.125.293.187.61.187.949 0 .648-.093 1.227-.28 1.736-.171.51-.412.965-.723 1.366a5.823 5.823 0 0 1-1.073 1.065 9.154 9.154 0 0 1-.747.513.652.652 0 0 1-.896-.23c-.208-.34-.08-.784.248-1.01.217-.15.425-.317.625-.5.35-.334.587-.667.71-1a.083.083 0 0 0-.08-.111c-.606 0-1.12-.209-1.54-.625a2.07 2.07 0 0 1-.63-1.528zm-5.365 0c0-.602.21-1.111.63-1.528.42-.432.933-.648 1.54-.648.31 0 .598.07.862.208.28.124.513.301.7.533.202.231.358.501.467.81.124.293.186.61.186.949 0 .648-.093 1.227-.28 1.736-.17.51-.412.965-.723 1.366a5.822 5.822 0 0 1-1.073 1.065 9.174 9.174 0 0 1-.747.513.652.652 0 0 1-.896-.23c-.208-.34-.08-.784.248-1.01.217-.15.425-.317.625-.5.35-.334.587-.667.71-1a.083.083 0 0 0-.08-.111c-.606 0-1.12-.209-1.54-.625A2.07 2.07 0 0 1 4.5 7.426z"/></symbol><symbol id="header1" viewBox="0 0 18 18"><path fill="#505050" d="M13.605 4.5c.747 0 1.353.606 1.353 1.353v6.627a.929.929 0 1 1-1.858 0V6.298a.038.038 0 0 0-.058-.033l-.97.608a.695.695 0 0 1-.742-1.175l1.548-.986c.217-.139.47-.212.727-.212z"/><rect width="1.8" height="9" x="3" y="4.5" fill="#505050" rx=".9"/><rect width="1.8" height="9" x="8.4" y="4.5" fill="#505050" rx=".9"/><rect width="7.2" height="1.8" x="3" y="8.1" fill="#505050" rx=".9"/></symbol><symbol id="bold" viewBox="0 0 18 18"><path fill="#505050" fill-rule="evenodd" d="M4.5 4.5a.75.75 0 0 1 .75-.75h4.5a3 3 0 0 1 0 6h-4.5A.75.75 0 0 1 4.5 9V4.5zm1.5.75v3h3.75a1.5 1.5 0 0 0 0-3H6z" clip-rule="evenodd"/><path fill="#505050" fill-rule="evenodd" d="M4.313 4.5c0-.518.42-.938.937-.938h4.5a3.187 3.187 0 1 1 0 6.376h-4.5A.937.937 0 0 1 4.312 9V4.5zm.937-.563a.563.563 0 0 0-.563.563V9c0 .31.252.563.563.563h4.5a2.812 2.812 0 1 0 0-5.626h-4.5zm.563 1.313c0-.104.083-.188.187-.188h3.75a1.687 1.687 0 1 1 0 3.375H6a.188.188 0 0 1-.188-.187v-3zm.375.188v2.625H9.75a1.313 1.313 0 0 0 0-2.626H6.187z" clip-rule="evenodd"/><path fill="#505050" fill-rule="evenodd" d="M4.5 9a.75.75 0 0 1 .75-.75h5.063a3 3 0 0 1 0 6H5.25a.75.75 0 0 1-.75-.75V9zm1.5.75v3h4.313a1.5 1.5 0 1 0 0-3H6z" clip-rule="evenodd"/><path fill="#505050" fill-rule="evenodd" d="M4.313 9c0-.518.42-.938.937-.938h5.063a3.187 3.187 0 1 1 0 6.376H5.25a.937.937 0 0 1-.938-.938V9zm.937-.563A.563.563 0 0 0 4.687 9v4.5c0 .31.252.563.563.563h5.063a2.812 2.812 0 1 0 0-5.626H5.25zm.563 1.313c0-.104.083-.188.187-.188h4.313a1.687 1.687 0 1 1 0 3.376H6a.187.187 0 0 1-.188-.188v-3zm.375.188v2.624h4.125a1.313 1.313 0 0 0 0-2.624H6.186z" clip-rule="evenodd"/></symbol><symbol id="underline" viewBox="0 0 18 18"><path fill="#505050" fill-rule="evenodd" d="M5.625 3a.75.75 0 0 1 .75.75v3.938a2.625 2.625 0 0 0 5.25 0V3.75a.75.75 0 0 1 1.5 0v3.938a4.125 4.125 0 1 1-8.25 0V3.75a.75.75 0 0 1 .75-.75z" clip-rule="evenodd"/><path fill="#505050" fill-rule="evenodd" d="M4.688 3.75a.937.937 0 1 1 1.875 0v3.938a2.438 2.438 0 0 0 4.875 0V3.75a.937.937 0 1 1 1.874 0v3.938a4.313 4.313 0 0 1-8.624 0V3.75zm.937-.563a.563.563 0 0 0-.563.563v3.938a3.937 3.937 0 1 0 7.875 0V3.75a.562.562 0 1 0-1.124 0v3.938a2.812 2.812 0 1 1-5.626 0V3.75a.563.563 0 0 0-.562-.563zM3.75 13.875a.75.75 0 0 1 .75-.75h9a.75.75 0 0 1 0 1.5h-9a.75.75 0 0 1-.75-.75z" clip-rule="evenodd"/><path fill="#505050" fill-rule="evenodd" d="M3.563 13.875c0-.518.42-.938.937-.938h9a.937.937 0 1 1 0 1.876h-9a.937.937 0 0 1-.938-.938zm.937-.563a.562.562 0 1 0 0 1.126h9a.562.562 0 1 0 0-1.126h-9z" clip-rule="evenodd"/></symbol><symbol id="header3" viewBox="0 0 18 18"><rect width="1.77" height="8.85" x="1.5" y="4.5" fill="#505050" rx=".88"/><rect width="1.77" height="8.85" x="6.81" y="4.5" fill="#505050" rx=".88"/><rect width="7.08" height="1.77" x="1.5" y="8.04" fill="#505050" rx=".88"/><path fill="#505050" d="M12.802 13.5c-1.504 0-2.675-.65-3.132-1.662-.215-.478.225-.927.749-.927.495 0 .898.448 1.287.754.27.213.659.335 1.108.335.87 0 1.5-.496 1.488-1.198.012-.713-.63-1.221-1.658-1.221h-.139a.671.671 0 0 1 0-1.343h.14c.858 0 1.463-.472 1.463-1.161 0-.666-.508-1.125-1.282-1.125-.426 0-.812.131-1.077.36-.357.31-.738.74-1.21.74-.492 0-.905-.417-.716-.87.428-1.027 1.582-1.682 3.003-1.682 1.826 0 3.048 1.077 3.036 2.468.012.968-.661 1.664-1.622 1.844a.043.043 0 0 0-.035.042c0 .021.016.04.037.042 1.259.168 1.959.95 1.947 2.027.012 1.5-1.416 2.577-3.387 2.577z"/></symbol><symbol id="link" viewBox="0 0 18 18"><path fill="#505050" fill-rule="evenodd" d="M9.65 4a3.563 3.563 0 0 1 5.037 5.037l-.01.01-1.687 1.687a3.561 3.561 0 0 1-5.372-.385.75.75 0 0 1 1.201-.898 2.063 2.063 0 0 0 3.11.223l1.683-1.683a2.062 2.062 0 0 0-2.917-2.916l-.963.958A.75.75 0 0 1 8.674 4.97l.968-.961L9.649 4z" clip-rule="evenodd"/><path fill="#505050" fill-rule="evenodd" d="M9.52 3.865a3.75 3.75 0 0 1 5.302 5.303h-.002l-.01.011-1.687 1.688a3.749 3.749 0 0 1-5.655-.405.938.938 0 0 1 1.501-1.123 1.875 1.875 0 0 0 2.828.202l1.681-1.681a1.875 1.875 0 0 0-2.652-2.65l-.962.956a.937.937 0 1 1-1.322-1.33l.968-.962.01-.009zm.26.27l-.007.006-.967.961A.562.562 0 1 0 9.6 5.9l.965-.96a2.25 2.25 0 0 1 3.182 3.18l-.002.004-1.683 1.682a2.25 2.25 0 0 1-3.393-.243.562.562 0 1 0-.9.674 3.375 3.375 0 0 0 5.089.365l1.686-1.687h.001l.007-.008A3.375 3.375 0 0 0 9.78 4.134z" clip-rule="evenodd"/><path fill="#505050" fill-rule="evenodd" d="M6.971 7.121a3.562 3.562 0 0 1 4.098 1.204.75.75 0 1 1-1.201.899A2.063 2.063 0 0 0 6.758 9l-1.683 1.683A2.062 2.062 0 0 0 7.99 13.6l.957-.957a.75.75 0 0 1 1.06 1.06l-.961.962-.01.01A3.562 3.562 0 0 1 4 9.636l.01-.01L5.696 7.94c.36-.36.795-.64 1.274-.819z" clip-rule="evenodd"/><path fill="#505050" fill-rule="evenodd" d="M6.905 6.945a3.75 3.75 0 0 1 4.314 1.268.938.938 0 0 1-1.501 1.123 1.875 1.875 0 0 0-2.828-.203l-1.681 1.682a1.875 1.875 0 0 0 2.65 2.65l.956-.955a.938.938 0 0 1 1.326 1.326l-.963.963-.01.01a3.75 3.75 0 0 1-5.303-5.302l.001-.001.01-.01 1.688-1.688a3.76 3.76 0 0 1 1.341-.863zM5.83 8.073zm0 0L4.142 9.76l-.008.008a3.375 3.375 0 0 0 4.773 4.772l.007-.007.001-.001.961-.961a.562.562 0 1 0-.795-.796l-.96.96a2.25 2.25 0 0 1-3.181-3.181l.002-.003 1.683-1.683a2.25 2.25 0 0 1 3.393.243.563.563 0 0 0 .9-.674 3.375 3.375 0 0 0-5.09-.364z" clip-rule="evenodd"/></symbol><symbol id="header2" viewBox="0 0 18 18"><rect width="1.79" height="8.97" x="1.5" y="4.5" fill="#505050" rx=".9"/><rect width="1.79" height="8.97" x="6.88" y="4.5" fill="#505050" rx=".9"/><rect width="7.17" height="1.79" x="1.5" y="8.09" fill="#505050" rx=".9"/><path fill="#505050" d="M10.58 13.5a.931.931 0 0 1-.63-1.617l2.883-2.65c.834-.797 1.275-1.288 1.275-1.986 0-.785-.6-1.276-1.41-1.276-.507 0-.906.196-1.14.539-.274.401-.627.835-1.113.835-.483 0-.894-.399-.761-.864.35-1.234 1.495-1.981 3.039-1.981 1.9 0 3.163 1.079 3.163 2.624 0 1.005-.49 1.84-2.317 3.494L12.23 11.92a.035.035 0 0 0 .024.06h2.994a.76.76 0 1 1 0 1.52H10.58z"/></symbol></svg>