<svg width="23" height="21" viewBox="0 0 23 21" fill="none" xmlns="http://www.w3.org/2000/svg">
<g id="Group 2609076">
<path id="Vector" d="M9.86333 2.75813L1.75653 16.2918C1.58938 16.5813 1.50094 16.9094 1.50001 17.2437C1.49907 17.5779 1.58567 17.9066 1.75119 18.197C1.91671 18.4874 2.15538 18.7293 2.44346 18.8988C2.73153 19.0684 3.05897 19.1595 3.3932 19.1632H19.6068C19.941 19.1595 20.2685 19.0684 20.5565 18.8988C20.8446 18.7293 21.0833 18.4874 21.2488 18.197C21.4143 17.9066 21.5009 17.5779 21.5 17.2437C21.4991 16.9094 21.4106 16.5813 21.2435 16.2918L13.1367 2.75813C12.966 2.47684 12.7258 2.24427 12.4391 2.08287C12.1524 1.92146 11.829 1.83667 11.5 1.83667C11.171 1.83667 10.8476 1.92146 10.5609 2.08287C10.2742 2.24427 10.034 2.47684 9.86333 2.75813Z" stroke="#FFC700" stroke-width="2" stroke-linecap="round" stroke-linejoin="round"/>
<path id="Vector_2" d="M11.5 7.67773V11.5062" stroke="#FFC700" stroke-width="2" stroke-linecap="round" stroke-linejoin="round"/>
<path id="Vector_3" d="M11.5 15.3347H11.51" stroke="#FFC700" stroke-width="2" stroke-linecap="round" stroke-linejoin="round"/>
</g>
</svg>
