<svg width="360" height="240" viewBox="0 0 360 240" fill="none" xmlns="http://www.w3.org/2000/svg">
<rect width="360" height="240" rx="20" fill="#86BEF2"/>
<mask id="mask0_3101_20959" style="mask-type:alpha" maskUnits="userSpaceOnUse" x="0" y="0" width="360" height="240">
<rect width="360" height="240" rx="20" fill="#86BEF2"/>
</mask>
<g mask="url(#mask0_3101_20959)">
<path d="M55.5714 213.491C54.2912 216.146 51.0798 217.249 48.3986 215.956L33.8339 208.932C31.1527 207.639 30.0169 204.439 31.297 201.784L66.0662 129.692C67.3463 127.038 70.5577 125.934 73.239 127.227L87.8036 134.252C90.4849 135.545 91.6207 138.745 90.3405 141.399L55.5714 213.491Z" fill="#FFC2C2"/>
<path d="M61.5997 201.201C60.3066 203.883 57.0847 205.008 54.4034 203.715L39.8388 196.691C37.1576 195.397 36.0323 192.176 37.3254 189.494L72.447 116.671C73.7401 113.99 76.962 112.865 79.6433 114.158L94.2079 121.182C96.8892 122.475 98.0145 125.697 96.7213 128.378L61.5997 201.201Z" fill="#F7DF1E"/>
<path d="M58.887 206.614C58.7762 206.844 56.5127 205.982 53.8314 204.689L39.2668 197.664C36.5855 196.371 34.5018 195.137 34.6127 194.907L37.624 188.663C37.7349 188.433 39.9984 189.295 42.6796 190.588L57.2442 197.612C59.9255 198.905 62.0092 200.14 61.8983 200.37L58.887 206.614Z" fill="white"/>
<path d="M94.5455 96.7015C96.2233 95.3202 98.5432 96.439 98.5068 98.612L98.0705 124.679C98.0374 126.653 96.0448 128.043 94.3912 127.245L74.7008 117.749C73.0471 116.951 72.8944 114.527 74.4187 113.272L94.5455 96.7015Z" fill="#DECABC"/>
<ellipse cx="242.203" cy="233.75" rx="74.3433" ry="36.2729" transform="rotate(11.8356 242.203 233.75)" fill="#D5F0EF"/>
<path d="M108.111 122.4C125.442 67.5742 166.767 84.4823 188.416 110.553L167.47 176.821C139.234 191.493 89.1236 182.47 108.111 122.4Z" fill="#E5F6F3"/>
<path d="M119.524 126.894C132.596 85.5383 163.769 98.2923 180.099 117.958L164.299 167.945C143.001 179.012 105.201 172.207 119.524 126.894Z" fill="#BCEBE8"/>
<path d="M349.253 166.386C352.396 108.972 307.762 110.201 278.303 126.949L274.504 196.344C295.74 220.041 345.809 229.291 349.253 166.386Z" fill="#E5F6F3"/>
<path d="M336.988 166.561C339.359 123.253 305.691 124.18 283.469 136.813L280.604 189.16C296.623 207.034 334.391 214.012 336.988 166.561Z" fill="#BCEBE8"/>
<ellipse cx="229.841" cy="150.831" rx="62.7701" ry="59.2699" transform="rotate(11.8356 229.841 150.831)" fill="#E5F6F3"/>
<ellipse cx="226.485" cy="166.917" rx="74.3433" ry="75.5102" transform="rotate(10.3375 226.485 166.917)" fill="#E5F6F3"/>
<ellipse cx="191.473" cy="161.956" rx="7" ry="8.84333" transform="rotate(10.3375 191.473 161.956)" fill="black"/>
<circle cx="189.836" cy="159.784" r="2" transform="rotate(10.3375 189.836 159.784)" fill="white"/>
<ellipse cx="249.454" cy="176.85" rx="7" ry="8.73555" transform="rotate(10.3375 249.454 176.85)" fill="black"/>
<circle cx="247.798" cy="174.784" r="2" transform="rotate(10.3375 247.798 174.784)" fill="white"/>
<path fill-rule="evenodd" clip-rule="evenodd" d="M68.6587 164.574C80.4951 159.964 93.8277 165.822 98.4379 177.659C104.146 192.315 111.292 200.691 117.915 205.414C124.474 210.091 131.819 212.121 139.692 212.001C156.345 211.747 174.832 201.683 185.787 187.465L222.225 215.542C203.904 239.319 172.911 257.5 140.393 257.996C123.68 258.251 106.516 253.782 91.2092 242.868C75.9654 231.999 63.8855 215.692 55.5744 194.354C50.9643 182.517 56.8223 169.185 68.6587 164.574Z" fill="#E5F6F3"/>
<path d="M102 185.5C93 163.5 83.5 163 76 163C85 164.262 93.8835 171 99.5 186C106.989 206 121.5 215 137 215C170.029 215 190.97 187.048 197.197 176.123C197.489 175.61 196.989 175.331 196.633 175.801C188.253 186.882 173.749 200.571 161.5 206C126.3 221.6 107.727 199.5 102 185.5Z" fill="#F1FFFE"/>
<path d="M187 240C212.427 237.383 226.144 205.87 233.542 187.204C233.759 186.657 234.528 186.87 234.434 187.451C229.657 216.958 214.299 234.457 203.604 239.947C203.534 239.983 203.459 240 203.38 240H187Z" fill="#D1E9E8"/>
<path d="M98.9337 92.6461L98.4048 104.881L89.6876 100.677L98.9337 92.6461Z" fill="#414141"/>
</g>
<path d="M41.8594 47.6406C41.8594 50.7578 44.625 54.1094 49.4531 54.9297L48.1406 57.4141C44.4258 56.6758 41.6602 54.5898 40.2891 51.8359C38.8711 54.5664 36.1055 56.6641 32.4141 57.4141L31.125 54.9297C35.8594 54.0859 38.6484 50.7344 38.6719 47.6406V46.0938H41.8594V47.6406ZM50.1562 61.0703V63.5312H30.6328V61.0703H50.1562ZM69.375 44.8281V66.2031H66.4219V54.7656H62.6719V52.3516H66.4219V44.8281H69.375ZM62.3203 46.6094V49.0234H55.3359V52.5625H61.5469V54.9062H55.3359V58.9375C58.2891 58.9141 60.6562 58.8086 63.3047 58.3984L63.6094 60.7891C60.4922 61.2578 57.7031 61.375 54.0469 61.375H52.3594V46.6094H62.3203ZM89.9766 44.8281V66.2031H86.9531V44.8281H89.9766ZM83.7891 46.7031V49.1406H76.4062V58.5859C80.2266 58.5742 82.5703 58.4922 85.2656 58L85.5469 60.4609C82.5938 61.0234 79.875 61.1172 75.2578 61.1172H73.4062V46.7031H83.7891ZM117.914 61.2109V63.6719H98.3906V61.2109H106.617V56.8516H100.453V46.3984H115.734V56.8516H109.594V61.2109H117.914ZM103.406 48.7891V54.5078H112.781V48.7891H103.406ZM131.742 46V48.3906H127.477C127.617 50.6406 129.223 52.8906 132.562 53.8047L131.062 56.125C128.625 55.4336 126.914 53.9688 125.953 52.0938C124.98 54.1211 123.234 55.7266 120.703 56.5L119.203 54.1562C122.602 53.1719 124.254 50.8047 124.406 48.3906H120.023V46H131.742ZM136.992 44.8281V56.4062H133.992V44.8281H136.992ZM125.672 57.2969V59.2891H134.016V57.2969H136.992V65.9219H122.719V57.2969H125.672ZM125.672 63.5312H134.016V61.6094H125.672V63.5312ZM156.703 44.8281V53.1719H159.844V55.6328H156.703V66.1562H153.75V44.8281H156.703ZM152.297 48.0156V50.4062H139.758V48.0156H144.586V45.1562H147.586V48.0156H152.297ZM146.086 51.6016C149.203 51.6016 151.523 53.7109 151.523 56.6875C151.523 59.6641 149.203 61.7734 146.086 61.7734C142.945 61.7734 140.625 59.6641 140.625 56.6875C140.625 53.7109 142.945 51.6016 146.086 51.6016ZM146.086 54.0156C144.586 54.0391 143.484 55.0469 143.484 56.6875C143.484 58.3516 144.586 59.3359 146.086 59.3125C147.586 59.3359 148.664 58.3516 148.664 56.6875C148.664 55.0469 147.586 54.0391 146.086 54.0156ZM178.547 44.8281V66.1562H175.523V44.8281H178.547ZM172.148 47.0547C172.148 53.5234 169.875 58.8906 162.258 62.5L160.688 60.1094C166.195 57.5078 168.621 54.1328 169.102 49.3984H161.836V47.0547H172.148Z" fill="white"/>
<path opacity="0.7" d="M36.918 24.457C36.918 26.2754 38.5312 28.2305 41.3477 28.709L40.582 30.1582C38.415 29.7275 36.8018 28.5107 36.002 26.9043C35.1748 28.4971 33.5615 29.7207 31.4082 30.1582L30.6562 28.709C33.418 28.2168 35.0449 26.2617 35.0586 24.457V23.5547H36.918V24.457ZM41.7578 32.291V33.7266H30.3691V32.291H41.7578ZM52.9688 22.8164V35.2852H51.2461V28.6133H49.0586V27.2051H51.2461V22.8164H52.9688ZM48.8535 23.8555V25.2637H44.7793V27.3281H48.4023V28.6953H44.7793V31.0469C46.502 31.0332 47.8828 30.9717 49.4277 30.7324L49.6055 32.127C47.7871 32.4004 46.1602 32.4688 44.0273 32.4688H43.043V23.8555H48.8535ZM64.9863 22.8164V35.2852H63.2227V22.8164H64.9863ZM61.377 23.9102V25.332H57.0703V30.8418C59.2988 30.835 60.666 30.7871 62.2383 30.5L62.4023 31.9355C60.6797 32.2637 59.0938 32.3184 56.4004 32.3184H55.3203V23.9102H61.377ZM78.043 28.3945V29.6934H66.6543V28.3945H78.043ZM76.6758 30.3086V33.248H69.7031V33.959H77.0449V35.1484H67.9668V32.1406H74.9531V31.5117H67.9531V30.3086H76.6758ZM76.6621 23.0352V25.9609H69.8125V26.6309H76.8809V27.8066H68.0762V24.8535H74.9121V24.2246H68.0488V23.0352H76.6621ZM92.4121 22.8164V30.3086H90.6621V22.8164H92.4121ZM92.4121 30.8555V35.2578H90.6621V32.25H83.8535V30.8555H92.4121ZM89.3496 23.541V24.9355H86.8477C86.8613 26.3916 87.7773 27.9229 89.8145 28.5312L88.9258 29.8848C87.5312 29.4541 86.5469 28.5586 85.9863 27.4238C85.4189 28.6543 84.4072 29.6318 82.9512 30.1172L82.0488 28.7637C84.0996 28.1006 85.0566 26.4873 85.0703 24.9355H82.5137V23.541H89.3496ZM104.58 22.8164V29.625H102.844V27.0273H100.875V25.6055H102.844V22.8164H104.58ZM98.0039 30.1035V31.2793H102.844V30.1035H104.58V35.1211H96.2812V30.1035H98.0039ZM98.0039 33.7266H102.844V32.6191H98.0039V33.7266ZM101.271 23.377V24.7988H98.8105C98.8789 26.1865 99.7676 27.6289 101.654 28.2441L100.793 29.584C99.4121 29.126 98.4619 28.2373 97.9219 27.1094C97.375 28.3604 96.3838 29.3652 94.9141 29.8438L94.0254 28.4766C95.9805 27.8271 96.917 26.3164 97.0195 24.7988H94.5176V23.377H101.271ZM120.809 32.373V33.8086H109.42V32.373H114.219V29.8301H110.623V23.7324H119.537V29.8301H115.955V32.373H120.809ZM112.346 25.127V28.4629H117.814V25.127H112.346ZM128.875 23.5V24.8945H126.387C126.469 26.207 127.405 27.5195 129.354 28.0527L128.479 29.4062C127.057 29.0029 126.059 28.1484 125.498 27.0547C124.931 28.2373 123.912 29.1738 122.436 29.625L121.561 28.2578C123.543 27.6836 124.507 26.3027 124.596 24.8945H122.039V23.5H128.875ZM131.938 22.8164V29.5703H130.188V22.8164H131.938ZM125.334 30.0898V31.252H130.201V30.0898H131.938V35.1211H123.611V30.0898H125.334ZM125.334 33.7266H130.201V32.6055H125.334V33.7266ZM139.621 24.7168V26.0977H133.605V24.7168H135.766V23.1582H137.488V24.7168H139.621ZM136.641 26.6582C138.227 26.6582 139.361 27.8887 139.375 29.6113C139.361 31.3477 138.227 32.5781 136.641 32.5781C135.055 32.5781 133.893 31.3477 133.893 29.6113C133.893 27.8887 135.055 26.6582 136.641 26.6582ZM136.641 28.1074C135.916 28.1074 135.424 28.668 135.424 29.6113C135.424 30.5547 135.916 31.1016 136.641 31.1016C137.338 31.1016 137.83 30.5547 137.844 29.6113C137.83 28.668 137.338 28.1074 136.641 28.1074ZM144.379 22.8164V35.2578H142.725V29.2695H141.713V34.7246H140.086V23.0625H141.713V27.875H142.725V22.8164H144.379ZM157.107 32.3867V33.8086H145.719V32.3867H150.518V30.0898H146.922V23.6094H148.672V25.5371H154.1V23.6094H155.836V30.0898H152.254V32.3867H157.107ZM148.672 28.6953H154.1V26.9316H148.672V28.6953ZM161.811 25.9473C161.811 27.957 162.371 30.0352 164.066 31.1289L163.123 32.4824C162.05 31.833 161.366 30.7666 160.977 29.4883C160.525 30.8965 159.78 32.0723 158.652 32.7559L157.586 31.4707C159.432 30.3223 160.115 28.1348 160.115 26.0293V23.8828H161.811V25.9473ZM168.605 22.8164V35.2578H166.938V22.8164H168.605ZM165.994 22.9941V34.6836H164.367V28.4355H162.754V27.0137H164.367V22.9941H165.994ZM181.307 32.373V33.8086H169.918V32.373H172.461V29.3242C171.497 28.75 170.916 27.8682 170.916 26.7676C170.916 24.7578 172.885 23.418 175.592 23.418C178.285 23.418 180.268 24.7578 180.281 26.7676C180.274 27.8408 179.707 28.7158 178.777 29.2969V32.373H181.307ZM175.592 24.7988C173.814 24.7988 172.639 25.5098 172.639 26.7676C172.639 27.9844 173.814 28.7363 175.592 28.7363C177.355 28.7363 178.545 27.9844 178.559 26.7676C178.545 25.5098 177.355 24.7988 175.592 24.7988ZM174.184 32.373H177.014V29.9531C176.569 30.042 176.091 30.0898 175.592 30.0898C175.093 30.0898 174.621 30.0488 174.184 29.9531V32.373ZM184.848 24.1016L184.67 31.0332H182.92L182.742 24.1016H184.848ZM183.809 34.123C183.166 34.123 182.646 33.6035 182.66 32.9746C182.646 32.3457 183.166 31.8398 183.809 31.8398C184.41 31.8398 184.943 32.3457 184.943 32.9746C184.943 33.6035 184.41 34.123 183.809 34.123Z" fill="white"/>
</svg>
