<svg width="226" height="226" viewBox="0 0 226 226" fill="none" xmlns="http://www.w3.org/2000/svg">
<rect width="226" height="226" rx="20" fill="#86BEF2"/>
<mask id="mask0_3101_20962" style="mask-type:alpha" maskUnits="userSpaceOnUse" x="0" y="0" width="226" height="226">
<rect width="226" height="226" rx="20" fill="#86BEF2"/>
</mask>
<g mask="url(#mask0_3101_20962)">
<mask id="mask1_3101_20962" style="mask-type:alpha" maskUnits="userSpaceOnUse" x="-7" y="29" width="239" height="197">
<rect x="-7" y="29" width="238.042" height="197" rx="20" fill="#86BEF2"/>
</mask>
<g mask="url(#mask1_3101_20962)">
<path d="M30.0944 198.475C29.1886 200.353 26.9164 201.134 25.0193 200.219L14.714 195.249C12.8169 194.334 12.0132 192.069 12.919 190.191L37.5201 139.182C38.4258 137.304 40.6981 136.523 42.5952 137.438L52.9004 142.408C54.7976 143.323 55.6012 145.588 54.6954 147.466L30.0944 198.475Z" fill="#FFC2C2"/>
<path d="M34.3601 189.779C33.4451 191.676 31.1654 192.472 29.2683 191.557L18.9631 186.587C17.0659 185.672 16.2697 183.392 17.1847 181.495L42.0351 129.969C42.95 128.072 45.2297 127.276 47.1268 128.191L57.4321 133.161C59.3292 134.076 60.1254 136.355 59.2104 138.253L34.3601 189.779Z" fill="#F7DF1E"/>
<path d="M32.4401 193.608C32.3617 193.771 30.7602 193.161 28.863 192.246L18.5578 187.276C16.6607 186.361 15.1863 185.488 15.2648 185.325L17.3954 180.907C17.4739 180.744 19.0754 181.354 20.9725 182.269L31.2778 187.239C33.1749 188.154 34.6493 189.028 34.5708 189.19L32.4401 193.608Z" fill="white"/>
<path d="M57.6707 115.84C58.8578 114.862 60.4993 115.654 60.4735 117.191L60.1648 135.635C60.1414 137.032 58.7315 138.015 57.5615 137.451L43.6295 130.732C42.4595 130.167 42.3514 128.452 43.4299 127.564L57.6707 115.84Z" fill="#DECABC"/>
<path d="M60.7755 112.97L60.4012 121.627L54.2334 118.652L60.7755 112.97Z" fill="#414141"/>
<ellipse cx="146.769" cy="222.917" rx="47.8897" ry="23.3659" transform="rotate(11.8356 146.769 222.917)" fill="#D5F0EF"/>
<path d="M60.3919 151.189C71.5555 115.872 98.1762 126.763 112.122 143.557L98.6285 186.245C80.4403 195.697 48.1605 189.884 60.3919 151.189Z" fill="#E5F6F3"/>
<path d="M67.7436 154.084C76.1644 127.444 96.2449 135.659 106.764 148.327L96.5861 180.527C82.8664 187.657 58.5172 183.273 67.7436 154.084Z" fill="#BCEBE8"/>
<path d="M215.728 179.523C217.752 142.539 189.001 143.33 170.024 154.119L167.577 198.822C181.257 214.086 213.51 220.045 215.728 179.523Z" fill="#E5F6F3"/>
<path d="M207.827 179.636C209.355 151.738 187.667 152.335 173.352 160.473L171.506 194.193C181.825 205.708 206.154 210.203 207.827 179.636Z" fill="#BCEBE8"/>
<ellipse cx="138.807" cy="169.503" rx="40.4345" ry="38.1798" transform="rotate(11.8356 138.807 169.503)" fill="#E5F6F3"/>
<ellipse cx="136.645" cy="179.865" rx="47.8897" ry="48.6413" transform="rotate(10.3375 136.645 179.865)" fill="#E5F6F3"/>
<ellipse cx="114.091" cy="176.67" rx="4.50918" ry="5.6966" transform="rotate(10.3375 114.091 176.67)" fill="black"/>
<circle cx="113.037" cy="175.27" r="1.28834" transform="rotate(10.3375 113.037 175.27)" fill="white"/>
<ellipse cx="151.441" cy="186.264" rx="4.50918" ry="5.62717" transform="rotate(10.3375 151.441 186.264)" fill="black"/>
<circle cx="150.374" cy="184.933" r="1.28834" transform="rotate(10.3375 150.374 184.933)" fill="white"/>
<path fill-rule="evenodd" clip-rule="evenodd" d="M34.9778 178.356C42.6025 175.387 51.191 179.16 54.1607 186.785C57.8379 196.226 62.4407 201.622 66.707 204.664C70.9326 207.677 75.6639 208.985 80.735 208.907C91.4625 208.744 103.371 202.261 110.429 193.102L133.901 211.188C122.099 226.504 102.134 238.216 81.1869 238.536C70.4207 238.7 59.3645 235.821 49.5042 228.791C39.6846 221.789 31.9031 211.285 26.5494 197.539C23.5796 189.915 27.3532 181.326 34.9778 178.356Z" fill="#E5F6F3"/>
<path d="M56.4554 191.836C50.6579 177.664 44.5383 177.342 39.707 177.342C45.5046 178.155 51.2271 182.496 54.845 192.158C59.6689 205.041 69.0167 210.839 79.0014 210.839C99.1207 210.839 112.277 194.738 117.04 187.036C117.351 186.534 116.898 186.267 116.531 186.729C111.037 193.64 102.259 201.729 94.7835 205.041C72.1087 215.09 60.1447 200.854 56.4554 191.836Z" fill="#F1FFFE"/>
<path d="M111.209 226.943C127.005 225.317 135.785 206.381 140.665 194.249C140.885 193.703 141.63 193.908 141.525 194.487C138.207 212.619 128.66 223.42 121.942 226.89C121.873 226.926 121.797 226.943 121.719 226.943H111.209Z" fill="#D1E9E8"/>
</g>
</g>
<path d="M31.8594 47.6406C31.8594 50.7578 34.625 54.1094 39.4531 54.9297L38.1406 57.4141C34.4258 56.6758 31.6602 54.5898 30.2891 51.8359C28.8711 54.5664 26.1055 56.6641 22.4141 57.4141L21.125 54.9297C25.8594 54.0859 28.6484 50.7344 28.6719 47.6406V46.0938H31.8594V47.6406ZM40.1562 61.0703V63.5312H20.6328V61.0703H40.1562ZM59.375 44.8281V66.2031H56.4219V54.7656H52.6719V52.3516H56.4219V44.8281H59.375ZM52.3203 46.6094V49.0234H45.3359V52.5625H51.5469V54.9062H45.3359V58.9375C48.2891 58.9141 50.6562 58.8086 53.3047 58.3984L53.6094 60.7891C50.4922 61.2578 47.7031 61.375 44.0469 61.375H42.3594V46.6094H52.3203ZM79.9766 44.8281V66.2031H76.9531V44.8281H79.9766ZM73.7891 46.7031V49.1406H66.4062V58.5859C70.2266 58.5742 72.5703 58.4922 75.2656 58L75.5469 60.4609C72.5938 61.0234 69.875 61.1172 65.2578 61.1172H63.4062V46.7031H73.7891ZM107.914 61.2109V63.6719H88.3906V61.2109H96.6172V56.8516H90.4531V46.3984H105.734V56.8516H99.5938V61.2109H107.914ZM93.4062 48.7891V54.5078H102.781V48.7891H93.4062ZM121.742 46V48.3906H117.477C117.617 50.6406 119.223 52.8906 122.562 53.8047L121.062 56.125C118.625 55.4336 116.914 53.9688 115.953 52.0938C114.98 54.1211 113.234 55.7266 110.703 56.5L109.203 54.1562C112.602 53.1719 114.254 50.8047 114.406 48.3906H110.023V46H121.742ZM126.992 44.8281V56.4062H123.992V44.8281H126.992ZM115.672 57.2969V59.2891H124.016V57.2969H126.992V65.9219H112.719V57.2969H115.672ZM115.672 63.5312H124.016V61.6094H115.672V63.5312ZM146.703 44.8281V53.1719H149.844V55.6328H146.703V66.1562H143.75V44.8281H146.703ZM142.297 48.0156V50.4062H129.758V48.0156H134.586V45.1562H137.586V48.0156H142.297ZM136.086 51.6016C139.203 51.6016 141.523 53.7109 141.523 56.6875C141.523 59.6641 139.203 61.7734 136.086 61.7734C132.945 61.7734 130.625 59.6641 130.625 56.6875C130.625 53.7109 132.945 51.6016 136.086 51.6016ZM136.086 54.0156C134.586 54.0391 133.484 55.0469 133.484 56.6875C133.484 58.3516 134.586 59.3359 136.086 59.3125C137.586 59.3359 138.664 58.3516 138.664 56.6875C138.664 55.0469 137.586 54.0391 136.086 54.0156ZM168.547 44.8281V66.1562H165.523V44.8281H168.547ZM162.148 47.0547C162.148 53.5234 159.875 58.8906 152.258 62.5L150.688 60.1094C156.195 57.5078 158.621 54.1328 159.102 49.3984H151.836V47.0547H162.148Z" fill="white"/>
<path opacity="0.7" d="M26.918 24.457C26.918 26.2754 28.5312 28.2305 31.3477 28.709L30.582 30.1582C28.415 29.7275 26.8018 28.5107 26.002 26.9043C25.1748 28.4971 23.5615 29.7207 21.4082 30.1582L20.6562 28.709C23.418 28.2168 25.0449 26.2617 25.0586 24.457V23.5547H26.918V24.457ZM31.7578 32.291V33.7266H20.3691V32.291H31.7578ZM42.9688 22.8164V35.2852H41.2461V28.6133H39.0586V27.2051H41.2461V22.8164H42.9688ZM38.8535 23.8555V25.2637H34.7793V27.3281H38.4023V28.6953H34.7793V31.0469C36.502 31.0332 37.8828 30.9717 39.4277 30.7324L39.6055 32.127C37.7871 32.4004 36.1602 32.4688 34.0273 32.4688H33.043V23.8555H38.8535ZM54.9863 22.8164V35.2852H53.2227V22.8164H54.9863ZM51.377 23.9102V25.332H47.0703V30.8418C49.2988 30.835 50.666 30.7871 52.2383 30.5L52.4023 31.9355C50.6797 32.2637 49.0938 32.3184 46.4004 32.3184H45.3203V23.9102H51.377ZM68.043 28.3945V29.6934H56.6543V28.3945H68.043ZM66.6758 30.3086V33.248H59.7031V33.959H67.0449V35.1484H57.9668V32.1406H64.9531V31.5117H57.9531V30.3086H66.6758ZM66.6621 23.0352V25.9609H59.8125V26.6309H66.8809V27.8066H58.0762V24.8535H64.9121V24.2246H58.0488V23.0352H66.6621ZM82.4121 22.8164V30.3086H80.6621V22.8164H82.4121ZM82.4121 30.8555V35.2578H80.6621V32.25H73.8535V30.8555H82.4121ZM79.3496 23.541V24.9355H76.8477C76.8613 26.3916 77.7773 27.9229 79.8145 28.5312L78.9258 29.8848C77.5312 29.4541 76.5469 28.5586 75.9863 27.4238C75.4189 28.6543 74.4072 29.6318 72.9512 30.1172L72.0488 28.7637C74.0996 28.1006 75.0566 26.4873 75.0703 24.9355H72.5137V23.541H79.3496ZM94.5801 22.8164V29.625H92.8438V27.0273H90.875V25.6055H92.8438V22.8164H94.5801ZM88.0039 30.1035V31.2793H92.8438V30.1035H94.5801V35.1211H86.2812V30.1035H88.0039ZM88.0039 33.7266H92.8438V32.6191H88.0039V33.7266ZM91.2715 23.377V24.7988H88.8105C88.8789 26.1865 89.7676 27.6289 91.6543 28.2441L90.793 29.584C89.4121 29.126 88.4619 28.2373 87.9219 27.1094C87.375 28.3604 86.3838 29.3652 84.9141 29.8438L84.0254 28.4766C85.9805 27.8271 86.917 26.3164 87.0195 24.7988H84.5176V23.377H91.2715ZM110.809 32.373V33.8086H99.4199V32.373H104.219V29.8301H100.623V23.7324H109.537V29.8301H105.955V32.373H110.809ZM102.346 25.127V28.4629H107.814V25.127H102.346ZM118.875 23.5V24.8945H116.387C116.469 26.207 117.405 27.5195 119.354 28.0527L118.479 29.4062C117.057 29.0029 116.059 28.1484 115.498 27.0547C114.931 28.2373 113.912 29.1738 112.436 29.625L111.561 28.2578C113.543 27.6836 114.507 26.3027 114.596 24.8945H112.039V23.5H118.875ZM121.938 22.8164V29.5703H120.188V22.8164H121.938ZM115.334 30.0898V31.252H120.201V30.0898H121.938V35.1211H113.611V30.0898H115.334ZM115.334 33.7266H120.201V32.6055H115.334V33.7266ZM129.621 24.7168V26.0977H123.605V24.7168H125.766V23.1582H127.488V24.7168H129.621ZM126.641 26.6582C128.227 26.6582 129.361 27.8887 129.375 29.6113C129.361 31.3477 128.227 32.5781 126.641 32.5781C125.055 32.5781 123.893 31.3477 123.893 29.6113C123.893 27.8887 125.055 26.6582 126.641 26.6582ZM126.641 28.1074C125.916 28.1074 125.424 28.668 125.424 29.6113C125.424 30.5547 125.916 31.1016 126.641 31.1016C127.338 31.1016 127.83 30.5547 127.844 29.6113C127.83 28.668 127.338 28.1074 126.641 28.1074ZM134.379 22.8164V35.2578H132.725V29.2695H131.713V34.7246H130.086V23.0625H131.713V27.875H132.725V22.8164H134.379ZM147.107 32.3867V33.8086H135.719V32.3867H140.518V30.0898H136.922V23.6094H138.672V25.5371H144.1V23.6094H145.836V30.0898H142.254V32.3867H147.107ZM138.672 28.6953H144.1V26.9316H138.672V28.6953ZM151.811 25.9473C151.811 27.957 152.371 30.0352 154.066 31.1289L153.123 32.4824C152.05 31.833 151.366 30.7666 150.977 29.4883C150.525 30.8965 149.78 32.0723 148.652 32.7559L147.586 31.4707C149.432 30.3223 150.115 28.1348 150.115 26.0293V23.8828H151.811V25.9473ZM158.605 22.8164V35.2578H156.938V22.8164H158.605ZM155.994 22.9941V34.6836H154.367V28.4355H152.754V27.0137H154.367V22.9941H155.994ZM171.307 32.373V33.8086H159.918V32.373H162.461V29.3242C161.497 28.75 160.916 27.8682 160.916 26.7676C160.916 24.7578 162.885 23.418 165.592 23.418C168.285 23.418 170.268 24.7578 170.281 26.7676C170.274 27.8408 169.707 28.7158 168.777 29.2969V32.373H171.307ZM165.592 24.7988C163.814 24.7988 162.639 25.5098 162.639 26.7676C162.639 27.9844 163.814 28.7363 165.592 28.7363C167.355 28.7363 168.545 27.9844 168.559 26.7676C168.545 25.5098 167.355 24.7988 165.592 24.7988ZM164.184 32.373H167.014V29.9531C166.569 30.042 166.091 30.0898 165.592 30.0898C165.093 30.0898 164.621 30.0488 164.184 29.9531V32.373ZM174.848 24.1016L174.67 31.0332H172.92L172.742 24.1016H174.848ZM173.809 34.123C173.166 34.123 172.646 33.6035 172.66 32.9746C172.646 32.3457 173.166 31.8398 173.809 31.8398C174.41 31.8398 174.943 32.3457 174.943 32.9746C174.943 33.6035 174.41 34.123 173.809 34.123Z" fill="white"/>
</svg>
