<svg width="290" height="240" viewBox="0 0 290 240" fill="none" xmlns="http://www.w3.org/2000/svg">
<rect width="290" height="240" rx="20" fill="#86BEF2"/>
<mask id="mask0_3101_20968" style="mask-type:alpha" maskUnits="userSpaceOnUse" x="0" y="0" width="290" height="240">
<rect width="290" height="240" rx="20" fill="#86BEF2"/>
</mask>
<g mask="url(#mask0_3101_20968)">
<path d="M40.8697 220.346C39.8651 222.429 37.3449 223.295 35.2407 222.28L23.8108 216.768C21.7066 215.753 20.8152 213.241 21.8199 211.158L49.1058 154.582C50.1104 152.499 52.6307 151.633 54.7348 152.648L66.1648 158.16C68.269 159.175 69.1603 161.687 68.1557 163.77L40.8697 220.346Z" fill="#FFC2C2"/>
<path d="M45.6007 210.701C44.5858 212.805 42.0574 213.688 39.9532 212.673L28.5232 207.161C26.4191 206.146 25.5359 203.618 26.5508 201.513L54.1133 144.364C55.1281 142.26 57.6566 141.376 59.7608 142.391L71.1907 147.904C73.2949 148.919 74.178 151.447 73.1632 153.551L45.6007 210.701Z" fill="#F7DF1E"/>
<path d="M43.4718 214.948C43.3848 215.129 41.6085 214.452 39.5043 213.438L28.0744 207.925C25.9702 206.91 24.3349 205.941 24.422 205.761L26.7852 200.861C26.8722 200.681 28.6485 201.357 30.7527 202.372L42.1826 207.884C44.2868 208.899 45.9221 209.868 45.835 210.048L43.4718 214.948Z" fill="white"/>
<path d="M71.4557 128.692C72.7724 127.608 74.593 128.486 74.5645 130.191L74.222 150.648C74.1961 152.197 72.6323 153.288 71.3346 152.662L55.8821 145.21C54.5843 144.584 54.4645 142.681 55.6607 141.696L71.4557 128.692Z" fill="#DECABC"/>
<ellipse cx="187.333" cy="236.244" rx="58.3428" ry="28.4661" transform="rotate(11.8356 187.333 236.244)" fill="#D5F0EF"/>
<path d="M82.1019 148.86C95.7022 105.834 128.134 119.103 145.123 139.562L128.685 191.568C106.526 203.082 67.2007 196.001 82.1019 148.86Z" fill="#E5F6F3"/>
<path d="M91.0582 152.387C101.317 119.931 125.781 129.941 138.596 145.374L126.196 184.602C109.482 193.288 79.8179 187.947 91.0582 152.387Z" fill="#BCEBE8"/>
<path d="M271.344 183.379C273.81 138.322 238.783 139.286 215.663 152.429L212.682 206.889C229.348 225.486 268.641 232.745 271.344 183.379Z" fill="#E5F6F3"/>
<path d="M261.719 183.516C263.579 149.529 237.158 150.256 219.718 160.171L217.47 201.251C230.041 215.278 259.68 220.755 261.719 183.516Z" fill="#BCEBE8"/>
<ellipse cx="177.632" cy="171.172" rx="49.2604" ry="46.5135" transform="rotate(11.8356 177.632 171.172)" fill="#E5F6F3"/>
<ellipse cx="174.998" cy="183.795" rx="58.3428" ry="59.2585" transform="rotate(10.3375 174.998 183.795)" fill="#E5F6F3"/>
<ellipse cx="147.522" cy="179.902" rx="5.49342" ry="6.94002" transform="rotate(10.3375 147.522 179.902)" fill="black"/>
<circle cx="146.238" cy="178.197" r="1.56955" transform="rotate(10.3375 146.238 178.197)" fill="white"/>
<ellipse cx="193.024" cy="191.59" rx="5.49342" ry="6.85544" transform="rotate(10.3375 193.024 191.59)" fill="black"/>
<circle cx="191.724" cy="189.969" r="1.56955" transform="rotate(10.3375 191.724 189.969)" fill="white"/>
<path fill-rule="evenodd" clip-rule="evenodd" d="M51.1403 181.957C60.4293 178.339 70.8924 182.936 74.5103 192.225C78.9902 203.727 84.5976 210.301 89.7951 214.007C94.9431 217.677 100.707 219.271 106.885 219.176C119.954 218.977 134.463 211.079 143.06 199.921L171.655 221.955C157.278 240.614 132.955 254.883 107.436 255.272C94.3194 255.472 80.85 251.965 68.8374 243.4C56.8745 234.87 47.3944 222.073 40.8721 205.327C37.2542 196.038 41.8514 185.575 51.1403 181.957Z" fill="#E5F6F3"/>
<path d="M77.3058 198.379C70.2428 181.114 62.7875 180.721 56.9017 180.721C63.9646 181.712 70.9362 187 75.3439 198.771C81.2207 214.467 92.6089 221.53 104.773 221.53C129.956 221.53 146.185 200.823 151.569 191.783C151.871 191.276 151.403 190.994 151.041 191.46C144.396 200.025 133.359 210.319 124 214.467C96.3758 226.709 81.8004 209.366 77.3058 198.379Z" fill="#F1FFFE"/>
<path d="M144.012 241.149C163.611 239.132 174.344 215.238 180.222 200.508C180.44 199.961 181.195 200.176 181.095 200.755C177.197 223.381 165.354 236.828 157.065 241.096C156.995 241.132 156.919 241.149 156.841 241.149H144.012Z" fill="#D1E9E8"/>
<path d="M74.8994 125.509L74.4843 135.111L67.6433 131.812L74.8994 125.509Z" fill="#414141"/>
</g>
<path d="M41.8594 47.6406C41.8594 50.7578 44.625 54.1094 49.4531 54.9297L48.1406 57.4141C44.4258 56.6758 41.6602 54.5898 40.2891 51.8359C38.8711 54.5664 36.1055 56.6641 32.4141 57.4141L31.125 54.9297C35.8594 54.0859 38.6484 50.7344 38.6719 47.6406V46.0938H41.8594V47.6406ZM50.1562 61.0703V63.5312H30.6328V61.0703H50.1562ZM69.375 44.8281V66.2031H66.4219V54.7656H62.6719V52.3516H66.4219V44.8281H69.375ZM62.3203 46.6094V49.0234H55.3359V52.5625H61.5469V54.9062H55.3359V58.9375C58.2891 58.9141 60.6562 58.8086 63.3047 58.3984L63.6094 60.7891C60.4922 61.2578 57.7031 61.375 54.0469 61.375H52.3594V46.6094H62.3203ZM89.9766 44.8281V66.2031H86.9531V44.8281H89.9766ZM83.7891 46.7031V49.1406H76.4062V58.5859C80.2266 58.5742 82.5703 58.4922 85.2656 58L85.5469 60.4609C82.5938 61.0234 79.875 61.1172 75.2578 61.1172H73.4062V46.7031H83.7891ZM117.914 61.2109V63.6719H98.3906V61.2109H106.617V56.8516H100.453V46.3984H115.734V56.8516H109.594V61.2109H117.914ZM103.406 48.7891V54.5078H112.781V48.7891H103.406ZM131.742 46V48.3906H127.477C127.617 50.6406 129.223 52.8906 132.562 53.8047L131.062 56.125C128.625 55.4336 126.914 53.9688 125.953 52.0938C124.98 54.1211 123.234 55.7266 120.703 56.5L119.203 54.1562C122.602 53.1719 124.254 50.8047 124.406 48.3906H120.023V46H131.742ZM136.992 44.8281V56.4062H133.992V44.8281H136.992ZM125.672 57.2969V59.2891H134.016V57.2969H136.992V65.9219H122.719V57.2969H125.672ZM125.672 63.5312H134.016V61.6094H125.672V63.5312ZM156.703 44.8281V53.1719H159.844V55.6328H156.703V66.1562H153.75V44.8281H156.703ZM152.297 48.0156V50.4062H139.758V48.0156H144.586V45.1562H147.586V48.0156H152.297ZM146.086 51.6016C149.203 51.6016 151.523 53.7109 151.523 56.6875C151.523 59.6641 149.203 61.7734 146.086 61.7734C142.945 61.7734 140.625 59.6641 140.625 56.6875C140.625 53.7109 142.945 51.6016 146.086 51.6016ZM146.086 54.0156C144.586 54.0391 143.484 55.0469 143.484 56.6875C143.484 58.3516 144.586 59.3359 146.086 59.3125C147.586 59.3359 148.664 58.3516 148.664 56.6875C148.664 55.0469 147.586 54.0391 146.086 54.0156ZM178.547 44.8281V66.1562H175.523V44.8281H178.547ZM172.148 47.0547C172.148 53.5234 169.875 58.8906 162.258 62.5L160.688 60.1094C166.195 57.5078 168.621 54.1328 169.102 49.3984H161.836V47.0547H172.148Z" fill="white"/>
<path opacity="0.7" d="M36.918 24.457C36.918 26.2754 38.5312 28.2305 41.3477 28.709L40.582 30.1582C38.415 29.7275 36.8018 28.5107 36.002 26.9043C35.1748 28.4971 33.5615 29.7207 31.4082 30.1582L30.6562 28.709C33.418 28.2168 35.0449 26.2617 35.0586 24.457V23.5547H36.918V24.457ZM41.7578 32.291V33.7266H30.3691V32.291H41.7578ZM52.9688 22.8164V35.2852H51.2461V28.6133H49.0586V27.2051H51.2461V22.8164H52.9688ZM48.8535 23.8555V25.2637H44.7793V27.3281H48.4023V28.6953H44.7793V31.0469C46.502 31.0332 47.8828 30.9717 49.4277 30.7324L49.6055 32.127C47.7871 32.4004 46.1602 32.4688 44.0273 32.4688H43.043V23.8555H48.8535ZM64.9863 22.8164V35.2852H63.2227V22.8164H64.9863ZM61.377 23.9102V25.332H57.0703V30.8418C59.2988 30.835 60.666 30.7871 62.2383 30.5L62.4023 31.9355C60.6797 32.2637 59.0938 32.3184 56.4004 32.3184H55.3203V23.9102H61.377ZM78.043 28.3945V29.6934H66.6543V28.3945H78.043ZM76.6758 30.3086V33.248H69.7031V33.959H77.0449V35.1484H67.9668V32.1406H74.9531V31.5117H67.9531V30.3086H76.6758ZM76.6621 23.0352V25.9609H69.8125V26.6309H76.8809V27.8066H68.0762V24.8535H74.9121V24.2246H68.0488V23.0352H76.6621ZM92.4121 22.8164V30.3086H90.6621V22.8164H92.4121ZM92.4121 30.8555V35.2578H90.6621V32.25H83.8535V30.8555H92.4121ZM89.3496 23.541V24.9355H86.8477C86.8613 26.3916 87.7773 27.9229 89.8145 28.5312L88.9258 29.8848C87.5312 29.4541 86.5469 28.5586 85.9863 27.4238C85.4189 28.6543 84.4072 29.6318 82.9512 30.1172L82.0488 28.7637C84.0996 28.1006 85.0566 26.4873 85.0703 24.9355H82.5137V23.541H89.3496ZM104.58 22.8164V29.625H102.844V27.0273H100.875V25.6055H102.844V22.8164H104.58ZM98.0039 30.1035V31.2793H102.844V30.1035H104.58V35.1211H96.2812V30.1035H98.0039ZM98.0039 33.7266H102.844V32.6191H98.0039V33.7266ZM101.271 23.377V24.7988H98.8105C98.8789 26.1865 99.7676 27.6289 101.654 28.2441L100.793 29.584C99.4121 29.126 98.4619 28.2373 97.9219 27.1094C97.375 28.3604 96.3838 29.3652 94.9141 29.8438L94.0254 28.4766C95.9805 27.8271 96.917 26.3164 97.0195 24.7988H94.5176V23.377H101.271ZM120.809 32.373V33.8086H109.42V32.373H114.219V29.8301H110.623V23.7324H119.537V29.8301H115.955V32.373H120.809ZM112.346 25.127V28.4629H117.814V25.127H112.346ZM128.875 23.5V24.8945H126.387C126.469 26.207 127.405 27.5195 129.354 28.0527L128.479 29.4062C127.057 29.0029 126.059 28.1484 125.498 27.0547C124.931 28.2373 123.912 29.1738 122.436 29.625L121.561 28.2578C123.543 27.6836 124.507 26.3027 124.596 24.8945H122.039V23.5H128.875ZM131.938 22.8164V29.5703H130.188V22.8164H131.938ZM125.334 30.0898V31.252H130.201V30.0898H131.938V35.1211H123.611V30.0898H125.334ZM125.334 33.7266H130.201V32.6055H125.334V33.7266ZM139.621 24.7168V26.0977H133.605V24.7168H135.766V23.1582H137.488V24.7168H139.621ZM136.641 26.6582C138.227 26.6582 139.361 27.8887 139.375 29.6113C139.361 31.3477 138.227 32.5781 136.641 32.5781C135.055 32.5781 133.893 31.3477 133.893 29.6113C133.893 27.8887 135.055 26.6582 136.641 26.6582ZM136.641 28.1074C135.916 28.1074 135.424 28.668 135.424 29.6113C135.424 30.5547 135.916 31.1016 136.641 31.1016C137.338 31.1016 137.83 30.5547 137.844 29.6113C137.83 28.668 137.338 28.1074 136.641 28.1074ZM144.379 22.8164V35.2578H142.725V29.2695H141.713V34.7246H140.086V23.0625H141.713V27.875H142.725V22.8164H144.379ZM157.107 32.3867V33.8086H145.719V32.3867H150.518V30.0898H146.922V23.6094H148.672V25.5371H154.1V23.6094H155.836V30.0898H152.254V32.3867H157.107ZM148.672 28.6953H154.1V26.9316H148.672V28.6953ZM161.811 25.9473C161.811 27.957 162.371 30.0352 164.066 31.1289L163.123 32.4824C162.05 31.833 161.366 30.7666 160.977 29.4883C160.525 30.8965 159.78 32.0723 158.652 32.7559L157.586 31.4707C159.432 30.3223 160.115 28.1348 160.115 26.0293V23.8828H161.811V25.9473ZM168.605 22.8164V35.2578H166.938V22.8164H168.605ZM165.994 22.9941V34.6836H164.367V28.4355H162.754V27.0137H164.367V22.9941H165.994ZM181.307 32.373V33.8086H169.918V32.373H172.461V29.3242C171.497 28.75 170.916 27.8682 170.916 26.7676C170.916 24.7578 172.885 23.418 175.592 23.418C178.285 23.418 180.268 24.7578 180.281 26.7676C180.274 27.8408 179.707 28.7158 178.777 29.2969V32.373H181.307ZM175.592 24.7988C173.814 24.7988 172.639 25.5098 172.639 26.7676C172.639 27.9844 173.814 28.7363 175.592 28.7363C177.355 28.7363 178.545 27.9844 178.559 26.7676C178.545 25.5098 177.355 24.7988 175.592 24.7988ZM174.184 32.373H177.014V29.9531C176.569 30.042 176.091 30.0898 175.592 30.0898C175.093 30.0898 174.621 30.0488 174.184 29.9531V32.373ZM184.848 24.1016L184.67 31.0332H182.92L182.742 24.1016H184.848ZM183.809 34.123C183.166 34.123 182.646 33.6035 182.66 32.9746C182.646 32.3457 183.166 31.8398 183.809 31.8398C184.41 31.8398 184.943 32.3457 184.943 32.9746C184.943 33.6035 184.41 34.123 183.809 34.123Z" fill="white"/>
</svg>
