<svg width="100" height="100" viewBox="0 0 100 100" fill="none" xmlns="http://www.w3.org/2000/svg">
<rect width="100" height="100" rx="10" fill="#86BEF2"/>
<path d="M81.944 44.2381C82.5491 43.2856 83.8197 43.0089 84.7819 43.6202L90.0086 46.9405C90.9708 47.5517 91.2602 48.8195 90.6551 49.772L74.2201 75.6431C73.615 76.5956 72.3444 76.8723 71.3822 76.261L66.1555 72.9407C65.1933 72.3295 64.9039 71.0618 65.509 70.1092L81.944 44.2381Z" fill="#FFC2C2"/>
<path d="M79.1037 48.6441C79.7149 47.6819 80.9905 47.3974 81.9527 48.0087L87.1793 51.329C88.1415 51.9402 88.426 53.2158 87.8148 54.178L71.2132 80.3113C70.6019 81.2735 69.3264 81.558 68.3642 80.9467L63.1375 77.6264C62.1753 77.0152 61.8908 75.7396 62.5021 74.7774L79.1037 48.6441Z" fill="#F7DF1E"/>
<path d="M80.3767 46.7064C80.4291 46.6239 81.2516 47.0525 82.2138 47.6638L87.4404 50.9841C88.4026 51.5953 89.1402 52.1577 89.0878 52.2402L87.6644 54.4809C87.6119 54.5634 86.7894 54.1347 85.8272 53.5235L80.6006 50.2032C79.6384 49.5919 78.9008 49.0295 78.9532 48.947L80.3767 46.7064Z" fill="white"/>
<path d="M61.9188 86.9223C61.2192 87.373 60.3866 86.8441 60.4973 86.0193L61.8242 76.1245C61.9247 75.3751 62.7445 74.9352 63.3379 75.3122L70.404 79.801C70.9974 80.178 70.9475 81.107 70.3119 81.5165L61.9188 86.9223Z" fill="#DECABC"/>
<path d="M60.0692 88.2693L60.8153 83.6393L63.9435 85.6268L60.0692 88.2693Z" fill="#414141"/>
<path d="M19.9062 17.0938C19.9062 19.1719 21.75 21.4062 24.9688 21.9531L24.0938 23.6094C21.6172 23.1172 19.7734 21.7266 18.8594 19.8906C17.9141 21.7109 16.0703 23.1094 13.6094 23.6094L12.75 21.9531C15.9062 21.3906 17.7656 19.1562 17.7812 17.0938V16.0625H19.9062V17.0938ZM25.4375 26.0469V27.6875H12.4219V26.0469H25.4375ZM38.25 15.2188V29.4688H36.2812V21.8438H33.7812V20.2344H36.2812V15.2188H38.25ZM33.5469 16.4062V18.0156H28.8906V20.375H33.0312V21.9375H28.8906V24.625C30.8594 24.6094 32.4375 24.5391 34.2031 24.2656L34.4062 25.8594C32.3281 26.1719 30.4688 26.25 28.0312 26.25H26.9062V16.4062H33.5469ZM51.9844 15.2188V29.4688H49.9688V15.2188H51.9844ZM47.8594 16.4688V18.0938H42.9375V24.3906C45.4844 24.3828 47.0469 24.3281 48.8438 24L49.0312 25.6406C47.0625 26.0156 45.25 26.0781 42.1719 26.0781H40.9375V16.4688H47.8594ZM25.4375 47.1406V48.7812H12.4219V47.1406H17.9062V44.2344H13.7969V37.2656H23.9844V44.2344H19.8906V47.1406H25.4375ZM15.7656 38.8594V42.6719H22.0156V38.8594H15.7656ZM34.6562 37V38.5938H31.8125C31.9062 40.0938 32.9766 41.5938 35.2031 42.2031L34.2031 43.75C32.5781 43.2891 31.4375 42.3125 30.7969 41.0625C30.1484 42.4141 28.9844 43.4844 27.2969 44L26.2969 42.4375C28.5625 41.7812 29.6641 40.2031 29.7656 38.5938H26.8438V37H34.6562ZM38.1562 36.2188V43.9375H36.1562V36.2188H38.1562ZM30.6094 44.5312V45.8594H36.1719V44.5312H38.1562V50.2812H28.6406V44.5312H30.6094ZM30.6094 48.6875H36.1719V47.4062H30.6094V48.6875ZM51.2969 36.2188V41.7812H53.3906V43.4219H51.2969V50.4375H49.3281V36.2188H51.2969ZM48.3594 38.3438V39.9375H40V38.3438H43.2188V36.4375H45.2188V38.3438H48.3594ZM44.2188 40.7344C46.2969 40.7344 47.8438 42.1406 47.8438 44.125C47.8438 46.1094 46.2969 47.5156 44.2188 47.5156C42.125 47.5156 40.5781 46.1094 40.5781 44.125C40.5781 42.1406 42.125 40.7344 44.2188 40.7344ZM44.2188 42.3438C43.2188 42.3594 42.4844 43.0312 42.4844 44.125C42.4844 45.2344 43.2188 45.8906 44.2188 45.875C45.2188 45.8906 45.9375 45.2344 45.9375 44.125C45.9375 43.0312 45.2188 42.3594 44.2188 42.3438ZM65.8594 36.2188V50.4375H63.8438V36.2188H65.8594ZM61.5938 37.7031C61.5938 42.0156 60.0781 45.5938 55 48L53.9531 46.4062C57.625 44.6719 59.2422 42.4219 59.5625 39.2656H54.7188V37.7031H61.5938Z" fill="white"/>
</svg>
