<svg width="226" height="226" viewBox="0 0 226 226" fill="none" xmlns="http://www.w3.org/2000/svg">
<rect width="226" height="226" rx="20" fill="#F8A5A5"/>
<path d="M100.026 107.305C98.8592 111.953 95.0428 113.328 92.3267 113.548C91.3465 113.627 90.4182 114.24 90.2587 115.21C88.615 125.208 97.8227 129.597 102.896 130.557C114.853 132.154 119.602 125.576 120.776 120.976C121.025 120.001 120.31 119.126 119.38 118.743C115.947 117.331 114.995 114.089 115.128 110.272C115.169 109.098 114.277 108.031 113.196 107.573C112.019 107.074 110.833 106.266 109.901 105.367C108.967 104.467 107.38 104.135 106.179 104.625C104.797 105.19 103.389 105.389 102.155 105.46C101.12 105.518 100.279 106.3 100.026 107.305Z" fill="#E5F6F3"/>
<ellipse cx="94.2554" cy="106.61" rx="4.67969" ry="6.09847" transform="rotate(27.3999 94.2554 106.61)" fill="#E5F6F3"/>
<ellipse cx="4.67969" cy="6.09847" rx="4.67969" ry="6.09847" transform="matrix(-0.996723 0.0808961 0.0808961 0.996723 124.966 105.495)" fill="#E5F6F3"/>
<ellipse cx="103.526" cy="99.2948" rx="5.16821" ry="5.20796" transform="rotate(27.3999 103.526 99.2948)" fill="#E5F6F3"/>
<ellipse cx="114.695" cy="101.543" rx="5.16821" ry="5.20796" transform="rotate(27.3999 114.695 101.543)" fill="#E5F6F3"/>
<path d="M174.518 74.6233C172.299 78.8701 168.267 79.3172 165.574 78.8975C164.603 78.7461 163.557 79.125 163.175 80.0314C159.245 89.3698 167.174 95.7854 171.884 97.9031C183.138 102.245 189.29 96.9569 191.506 92.7579C191.975 91.8682 191.484 90.85 190.669 90.2609C187.66 88.0871 187.49 84.7121 188.51 81.0314C188.824 79.8998 188.206 78.654 187.262 77.956C186.234 77.196 185.268 76.1341 184.572 75.0426C183.874 73.9496 182.408 73.256 181.126 73.453C179.651 73.6798 178.235 73.5449 177.018 73.3252C175.998 73.141 174.998 73.7047 174.518 74.6233Z" fill="#E5F6F3"/>
<ellipse cx="169.068" cy="72.601" rx="4.67969" ry="6.09847" transform="rotate(40.8914 169.068 72.601)" fill="#E5F6F3"/>
<ellipse cx="4.67969" cy="6.09847" rx="4.67969" ry="6.09847" transform="matrix(-0.988091 -0.153872 -0.153872 0.988091 199.192 78.6812)" fill="#E5F6F3"/>
<ellipse cx="179.79" cy="67.6504" rx="5.16821" ry="5.20796" transform="rotate(40.8914 179.79 67.6504)" fill="#E5F6F3"/>
<ellipse cx="190.126" cy="72.4419" rx="5.16821" ry="5.20796" transform="rotate(40.8914 190.126 72.4419)" fill="#E5F6F3"/>
<path d="M58.1265 175.493C56.9593 180.141 53.1429 181.516 50.4268 181.736C49.4466 181.815 48.5183 182.428 48.3588 183.398C46.7151 193.396 55.9228 197.785 60.9963 198.745C72.9527 200.342 77.7017 193.764 78.8764 189.164C79.1253 188.189 78.4102 187.314 77.4798 186.931C74.0469 185.519 73.0947 182.277 73.228 178.46C73.2689 177.286 72.3773 176.219 71.2962 175.761C70.1191 175.262 68.9328 174.454 68.0007 173.555C67.0674 172.655 65.4798 172.323 64.2796 172.813C62.8974 173.378 61.4895 173.577 60.255 173.648C59.2202 173.706 58.3789 174.488 58.1265 175.493Z" fill="#E5F6F3"/>
<ellipse cx="52.3555" cy="174.798" rx="4.67969" ry="6.09847" transform="rotate(27.3999 52.3555 174.798)" fill="#E5F6F3"/>
<ellipse cx="4.67969" cy="6.09847" rx="4.67969" ry="6.09847" transform="matrix(-0.996723 0.0808961 0.0808961 0.996723 83.0663 173.683)" fill="#E5F6F3"/>
<ellipse cx="61.6261" cy="167.483" rx="5.16821" ry="5.20796" transform="rotate(27.3999 61.6261 167.483)" fill="#E5F6F3"/>
<ellipse cx="72.7949" cy="169.731" rx="5.16821" ry="5.20796" transform="rotate(27.3999 72.7949 169.731)" fill="#E5F6F3"/>
<path d="M145.181 161.87C142.479 165.827 138.423 165.799 135.798 165.067C134.851 164.802 133.768 165.056 133.283 165.912C128.285 174.725 135.408 182.026 139.837 184.681C150.504 190.312 157.234 185.781 159.927 181.87C160.497 181.042 160.129 179.973 159.388 179.293C156.654 176.781 156.882 173.41 158.326 169.874C158.77 168.787 158.302 167.477 157.446 166.673C156.514 165.798 155.68 164.63 155.116 163.465C154.552 162.297 153.177 161.437 151.881 161.482C150.389 161.534 148.999 161.235 147.816 160.874C146.825 160.571 145.765 161.014 145.181 161.87Z" fill="#E5F6F3"/>
<ellipse cx="140.006" cy="159.223" rx="4.67969" ry="6.09847" transform="rotate(47.6214 140.006 159.223)" fill="#E5F6F3"/>
<ellipse cx="4.67969" cy="6.09847" rx="4.67969" ry="6.09847" transform="matrix(-0.96325 -0.268607 -0.268607 0.96325 169.209 168.792)" fill="#E5F6F3"/>
<ellipse cx="151.234" cy="155.563" rx="5.16821" ry="5.20796" transform="rotate(47.6214 151.234 155.563)" fill="#E5F6F3"/>
<ellipse cx="160.937" cy="161.533" rx="5.16821" ry="5.20796" transform="rotate(47.6214 160.937 161.533)" fill="#E5F6F3"/>
<path opacity="0.7" d="M27.082 23.5273V24.9219H22.8027V25.8926H26.7129V27.2324H22.8027V28.2578C24.9902 28.251 26.3779 28.2168 27.957 27.957L28.1348 29.3105C26.3574 29.6113 24.7852 29.6387 22.1191 29.6387H21.0527V23.5273H27.082ZM30.7871 22.8301V30.2129H29.0371V22.8301H30.7871ZM30.7871 30.7188V35.1211H22.4473V30.7188H30.7871ZM24.1699 32.0723V33.7266H29.0781V32.0723H24.1699ZM43.0098 22.8301V32.2227H41.2598V31.2383H38.8809V30.0488H41.2598V22.8301H43.0098ZM43.2832 33.6445V35.0391H34.0137V31.3203H35.75V29.666C34.6357 29.7139 33.5762 29.7207 32.6328 29.7207L32.4277 28.3398C34.7109 28.3262 37.7871 28.2988 40.4121 27.9707L40.5078 29.2148C39.5234 29.3789 38.5049 29.4951 37.5 29.5703V31.9355H35.75V33.6445H43.2832ZM36.4746 23.2539C38.2793 23.2402 39.5781 24.1562 39.5781 25.4824C39.5781 26.8086 38.2793 27.6699 36.4746 27.6699C34.6289 27.6699 33.3438 26.8086 33.3438 25.4824C33.3438 24.1562 34.6152 23.2402 36.4746 23.2539ZM36.4746 24.5254C35.5859 24.5254 34.9844 24.8672 34.998 25.4824C34.9844 26.084 35.5859 26.4121 36.4746 26.4121C37.3086 26.4121 37.9102 26.084 37.9238 25.4824C37.9102 24.8672 37.3086 24.5254 36.4746 24.5254ZM50.2422 22.9941C53.0996 22.9941 54.7539 23.7461 54.7676 25.1133C54.7539 26.4941 53.0996 27.2461 50.2422 27.2461C47.3711 27.2461 45.7031 26.4941 45.7031 25.1133C45.7031 23.7461 47.3711 22.9941 50.2422 22.9941ZM50.2422 24.2656C48.4102 24.2656 47.5215 24.5664 47.5352 25.1133C47.5215 25.7285 48.4102 25.9609 50.2422 25.9609C52.0879 25.9609 52.9629 25.7285 52.9629 25.1133C52.9629 24.5664 52.0879 24.2656 50.2422 24.2656ZM55.916 27.834V29.2148H44.5684V27.834H55.916ZM54.5352 29.9395V33.1113H47.6035V33.8633H54.8633V35.1758H45.8945V31.8945H52.8125V31.2109H45.8809V29.9395H54.5352ZM70.3125 22.8164V30.3086H68.5625V22.8164H70.3125ZM70.3125 30.8555V35.2578H68.5625V32.25H61.7539V30.8555H70.3125ZM67.25 23.541V24.9355H64.748C64.7617 26.3916 65.6777 27.9229 67.7148 28.5312L66.8262 29.8848C65.4316 29.4541 64.4473 28.5586 63.8867 27.4238C63.3193 28.6543 62.3076 29.6318 60.8516 30.1172L59.9492 28.7637C62 28.1006 62.957 26.4873 62.9707 24.9355H60.4141V23.541H67.25ZM82.4805 22.8164V29.625H80.7441V27.0273H78.7754V25.6055H80.7441V22.8164H82.4805ZM75.9043 30.1035V31.2793H80.7441V30.1035H82.4805V35.1211H74.1816V30.1035H75.9043ZM75.9043 33.7266H80.7441V32.6191H75.9043V33.7266ZM79.1719 23.377V24.7988H76.7109C76.7793 26.1865 77.668 27.6289 79.5547 28.2441L78.6934 29.584C77.3125 29.126 76.3623 28.2373 75.8223 27.1094C75.2754 28.3604 74.2842 29.3652 72.8145 29.8438L71.9258 28.4766C73.8809 27.8271 74.8174 26.3164 74.9199 24.7988H72.418V23.377H79.1719ZM94.416 24.0195V25.4004H91.9004C91.9277 26.624 92.8301 27.8818 94.8125 28.3809L94.0469 29.7207C92.6113 29.3584 91.6133 28.5791 91.0527 27.5879C90.499 28.6816 89.501 29.5498 88.0449 29.9531L87.2246 28.5723C89.207 28.0596 90.1367 26.7471 90.1641 25.4004H87.6621V24.0195H90.1641V22.7617H91.9277V24.0195H94.416ZM97.1914 22.8164V25.6055H98.873V27.041H97.1914V29.9121H95.4414V22.8164H97.1914ZM97.3418 30.4453V31.8125H94.1836C94.498 32.7285 95.7217 33.6172 97.8887 33.9043L97.2734 35.2305C95.2705 34.9639 93.8623 34.1641 93.1445 33.0977C92.4336 34.1572 91.0322 34.9365 89.0566 35.2031L88.4277 33.877C90.6152 33.6104 91.8252 32.749 92.1465 31.8125H88.9609V30.4453H97.3418ZM102.77 23.6914C104.67 23.6914 106.037 25.4141 106.051 28.1211C106.037 30.8555 104.67 32.5645 102.77 32.5645C100.869 32.5645 99.4746 30.8555 99.4883 28.1211C99.4746 25.4141 100.869 23.6914 102.77 23.6914ZM102.77 25.2637C101.812 25.2637 101.17 26.2754 101.17 28.1211C101.17 29.9805 101.812 30.9785 102.77 30.9785C103.74 30.9785 104.369 29.9805 104.383 28.1211C104.369 26.2754 103.74 25.2637 102.77 25.2637ZM109.236 22.8164V27.5059H111.068V28.9551H109.236V35.2578H107.486V22.8164H109.236ZM122.908 32.3867V33.8086H111.52V32.3867H116.318V30.0898H112.723V23.6094H114.473V25.5371H119.9V23.6094H121.637V30.0898H118.055V32.3867H122.908ZM114.473 28.6953H119.9V26.9316H114.473V28.6953ZM127.611 25.9473C127.611 27.957 128.172 30.0352 129.867 31.1289L128.924 32.4824C127.851 31.833 127.167 30.7666 126.777 29.4883C126.326 30.8965 125.581 32.0723 124.453 32.7559L123.387 31.4707C125.232 30.3223 125.916 28.1348 125.916 26.0293V23.8828H127.611V25.9473ZM134.406 22.8164V35.2578H132.738V22.8164H134.406ZM131.795 22.9941V34.6836H130.168V28.4355H128.555V27.0137H130.168V22.9941H131.795ZM147.107 32.373V33.8086H135.719V32.373H138.262V29.3242C137.298 28.75 136.717 27.8682 136.717 26.7676C136.717 24.7578 138.686 23.418 141.393 23.418C144.086 23.418 146.068 24.7578 146.082 26.7676C146.075 27.8408 145.508 28.7158 144.578 29.2969V32.373H147.107ZM141.393 24.7988C139.615 24.7988 138.439 25.5098 138.439 26.7676C138.439 27.9844 139.615 28.7363 141.393 28.7363C143.156 28.7363 144.346 27.9844 144.359 26.7676C144.346 25.5098 143.156 24.7988 141.393 24.7988ZM139.984 32.373H142.814V29.9531C142.37 30.042 141.892 30.0898 141.393 30.0898C140.894 30.0898 140.422 30.0488 139.984 29.9531V32.373ZM150.648 24.1016L150.471 31.0332H148.721L148.543 24.1016H150.648ZM149.609 34.123C148.967 34.123 148.447 33.6035 148.461 32.9746C148.447 32.3457 148.967 31.8398 149.609 31.8398C150.211 31.8398 150.744 32.3457 150.744 32.9746C150.744 33.6035 150.211 34.123 149.609 34.123Z" fill="white"/>
<path d="M31.8594 47.6406C31.8594 50.7578 34.625 54.1094 39.4531 54.9297L38.1406 57.4141C34.4258 56.6758 31.6602 54.5898 30.2891 51.8359C28.8711 54.5664 26.1055 56.6641 22.4141 57.4141L21.125 54.9297C25.8594 54.0859 28.6484 50.7344 28.6719 47.6406V46.0938H31.8594V47.6406ZM40.1562 61.0703V63.5312H20.6328V61.0703H40.1562ZM52.5078 46.8672C52.4844 53.4531 50.8906 58.9375 42.9219 62.9219L41.2812 60.6719C44.8438 58.9023 46.9648 56.9219 48.1719 54.5547L41.8672 55.1406L41.4922 52.5859L49.0859 52.1172C49.2969 51.2266 49.4492 50.2656 49.5312 49.2578H42.6172V46.8672H52.5078ZM58.2031 44.8281V53.0078H61.2266V55.4688H58.2031V66.1094H55.2031V44.8281H58.2031ZM81.6172 56.7578V59.1953H73.2734V66.1797H70.3203V59.1953H62.0938V56.7578H81.6172ZM71.7969 45.5312C76.3672 45.5312 79.5781 47.4297 79.5781 50.3828C79.5781 53.2891 76.3672 55.1406 71.7969 55.1406C67.2266 55.1406 64.0391 53.2891 64.0625 50.3828C64.0391 47.4297 67.2266 45.5312 71.7969 45.5312ZM71.7969 47.9219C68.9375 47.9219 67.1094 48.8125 67.1328 50.3828C67.1094 51.9062 68.9375 52.7734 71.7969 52.7734C74.6797 52.7734 76.4844 51.9062 76.4844 50.3828C76.4844 48.8125 74.6797 47.9219 71.7969 47.9219ZM100.25 55.8438V58.2109H85.1562V46.3984H100.086V48.8125H88.2031V51.0625H99.5938V53.4062H88.2031V55.8438H100.25ZM102.383 61.2344V63.6719H82.8594V61.2344H102.383Z" fill="white"/>
</svg>
