<svg width="100" height="100" viewBox="0 0 100 100" fill="none" xmlns="http://www.w3.org/2000/svg">
<rect width="100" height="100" rx="10" fill="#F8A5A5"/>
<path d="M51.4684 56.0237C49.7192 60.4847 45.7587 61.3631 43.0367 61.2356C42.0544 61.1896 41.0557 61.6789 40.7739 62.6211C37.871 72.3283 46.4451 77.8532 51.3551 79.4518C63.011 82.5577 68.5587 76.6377 70.3094 72.2247C70.6803 71.2896 70.0825 70.3302 69.2084 69.8322C65.9831 67.9949 65.4514 64.6578 66.0694 60.8886C66.2594 59.7299 65.5109 58.5578 64.4969 57.9655C63.3929 57.3205 62.3191 56.3688 61.509 55.3585C60.6979 54.347 59.1655 53.8152 57.9126 54.1489C56.4698 54.5333 55.0479 54.5515 53.8145 54.464C52.7807 54.3907 51.8468 55.0588 51.4684 56.0237Z" fill="#E5F6F3"/>
<ellipse cx="45.8329" cy="54.5996" rx="4.67969" ry="6.09847" transform="rotate(34.7131 45.8329 54.5996)" fill="#E5F6F3"/>
<ellipse cx="4.67969" cy="6.09847" rx="4.67969" ry="6.09847" transform="matrix(-0.998912 -0.0466368 -0.0466368 0.998912 76.4359 57.4026)" fill="#E5F6F3"/>
<ellipse cx="55.9592" cy="48.5238" rx="5.16821" ry="5.20796" transform="rotate(34.7131 55.9592 48.5238)" fill="#E5F6F3"/>
<ellipse cx="66.751" cy="52.1752" rx="5.16821" ry="5.20796" transform="rotate(34.7131 66.751 52.1752)" fill="#E5F6F3"/>
<path d="M19.9062 17.0938C19.9062 19.1719 21.75 21.4062 24.9688 21.9531L24.0938 23.6094C21.6172 23.1172 19.7734 21.7266 18.8594 19.8906C17.9141 21.7109 16.0703 23.1094 13.6094 23.6094L12.75 21.9531C15.9062 21.3906 17.7656 19.1562 17.7812 17.0938V16.0625H19.9062V17.0938ZM25.4375 26.0469V27.6875H12.4219V26.0469H25.4375ZM33.6719 16.5781C33.6562 20.9688 32.5938 24.625 27.2812 27.2812L26.1875 25.7812C28.5625 24.6016 29.9766 23.2812 30.7812 21.7031L26.5781 22.0938L26.3281 20.3906L31.3906 20.0781C31.5312 19.4844 31.6328 18.8438 31.6875 18.1719H27.0781V16.5781H33.6719ZM37.4688 15.2188V20.6719H39.4844V22.3125H37.4688V29.4062H35.4688V15.2188H37.4688ZM53.0781 23.1719V24.7969H47.5156V29.4531H45.5469V24.7969H40.0625V23.1719H53.0781ZM46.5312 15.6875C49.5781 15.6875 51.7188 16.9531 51.7188 18.9219C51.7188 20.8594 49.5781 22.0938 46.5312 22.0938C43.4844 22.0938 41.3594 20.8594 41.375 18.9219C41.3594 16.9531 43.4844 15.6875 46.5312 15.6875ZM46.5312 17.2812C44.625 17.2812 43.4062 17.875 43.4219 18.9219C43.4062 19.9375 44.625 20.5156 46.5312 20.5156C48.4531 20.5156 49.6562 19.9375 49.6562 18.9219C49.6562 17.875 48.4531 17.2812 46.5312 17.2812ZM65.5 22.5625V24.1406H55.4375V16.2656H65.3906V17.875H57.4688V19.375H65.0625V20.9375H57.4688V22.5625H65.5ZM66.9219 26.1562V27.7812H53.9062V26.1562H66.9219Z" fill="white"/>
</svg>
