<svg width="290" height="240" viewBox="0 0 290 240" fill="none" xmlns="http://www.w3.org/2000/svg">
<rect width="290" height="240" rx="20" fill="#F8A5A5"/>
<path d="M139.621 110.741C138.342 116.306 133.768 117.846 130.645 118.041C129.664 118.102 128.737 118.717 128.566 119.685C126.538 131.136 137.039 136.151 142.808 137.244C156.512 139.074 161.837 131.4 163.066 126.195C163.297 125.216 162.587 124.339 161.647 123.98C157.507 122.399 156.429 118.554 156.641 114.039C156.696 112.866 155.803 111.806 154.709 111.38C153.193 110.79 151.638 109.724 150.488 108.548C149.581 107.621 148.007 107.286 146.822 107.813C145.075 108.591 143.272 108.827 141.733 108.898C140.697 108.946 139.853 109.731 139.621 110.741Z" fill="#E5F6F3"/>
<ellipse cx="133.045" cy="110.185" rx="5.28768" ry="6.8908" transform="rotate(27.3999 133.045 110.185)" fill="#E5F6F3"/>
<ellipse cx="5.28768" cy="6.8908" rx="5.28768" ry="6.8908" transform="matrix(-0.996723 0.0808961 0.0808961 0.996723 167.745 108.925)" fill="#E5F6F3"/>
<ellipse cx="143.52" cy="101.92" rx="5.83968" ry="5.88459" transform="rotate(27.3999 143.52 101.92)" fill="#E5F6F3"/>
<ellipse cx="156.139" cy="104.46" rx="5.83968" ry="5.88459" transform="rotate(27.3999 156.139 104.46)" fill="#E5F6F3"/>
<path d="M223.842 73.8323C221.3 78.9454 216.494 79.376 213.412 78.8364C212.443 78.6669 211.399 79.0486 211.006 79.9502C206.362 90.6121 215.403 97.9391 220.759 100.347C233.658 105.324 240.626 99.1038 243.035 94.3295C243.489 93.4315 243.003 92.4126 242.172 91.8445C238.515 89.3414 238.364 85.3505 239.623 81.0098C239.95 79.882 239.33 78.6437 238.365 77.974C237.029 77.0462 235.766 75.6473 234.921 74.2351C234.255 73.1223 232.803 72.4288 231.528 72.6652C229.648 73.014 227.84 72.8224 226.326 72.5326C225.308 72.3377 224.304 72.9042 223.842 73.8323Z" fill="#E5F6F3"/>
<ellipse cx="217.577" cy="71.7578" rx="5.28768" ry="6.8908" transform="rotate(40.8914 217.577 71.7578)" fill="#E5F6F3"/>
<ellipse cx="5.28768" cy="6.8908" rx="5.28768" ry="6.8908" transform="matrix(-0.988091 -0.153872 -0.153872 0.988091 251.615 78.628)" fill="#E5F6F3"/>
<ellipse cx="229.692" cy="66.164" rx="5.83968" ry="5.88459" transform="rotate(40.8914 229.692 66.164)" fill="#E5F6F3"/>
<ellipse cx="241.371" cy="71.5781" rx="5.83968" ry="5.88459" transform="rotate(40.8914 241.371 71.5781)" fill="#E5F6F3"/>
<path d="M92.2769 187.788C90.998 193.353 86.4242 194.893 83.3017 195.088C82.3202 195.149 81.3937 195.764 81.2222 196.732C79.194 208.183 89.6949 213.199 95.4643 214.291C109.169 216.121 114.493 208.447 115.722 203.242C115.954 202.263 115.243 201.386 114.303 201.027C110.163 199.446 109.085 195.601 109.297 191.086C109.352 189.913 108.46 188.854 107.365 188.427C105.85 187.837 104.295 186.771 103.144 185.595C102.237 184.668 100.663 184.333 99.4785 184.86C97.7311 185.638 95.9285 185.874 94.389 185.945C93.3536 185.993 92.509 186.778 92.2769 187.788Z" fill="#E5F6F3"/>
<ellipse cx="85.7008" cy="187.233" rx="5.28768" ry="6.8908" transform="rotate(27.3999 85.7008 187.233)" fill="#E5F6F3"/>
<ellipse cx="5.28768" cy="6.8908" rx="5.28768" ry="6.8908" transform="matrix(-0.996723 0.0808961 0.0808961 0.996723 120.402 185.972)" fill="#E5F6F3"/>
<ellipse cx="96.1758" cy="178.967" rx="5.83968" ry="5.88459" transform="rotate(27.3999 96.1758 178.967)" fill="#E5F6F3"/>
<ellipse cx="108.796" cy="181.507" rx="5.83968" ry="5.88459" transform="rotate(27.3999 108.796 181.507)" fill="#E5F6F3"/>
<path d="M190.718 172.428C187.594 177.208 182.77 177.073 179.773 176.176C178.831 175.894 177.749 176.15 177.253 177C171.392 187.044 179.512 195.38 184.548 198.399C196.775 204.854 204.424 199.493 207.376 195.034C207.932 194.195 207.568 193.126 206.811 192.465C203.472 189.55 203.79 185.569 205.549 181.406C206.006 180.324 205.535 179.022 204.655 178.243C203.437 177.166 202.346 175.628 201.673 174.127C201.142 172.944 199.781 172.085 198.488 172.17C196.579 172.296 194.806 171.894 193.337 171.429C192.349 171.116 191.285 171.561 190.718 172.428Z" fill="#E5F6F3"/>
<ellipse cx="184.739" cy="169.634" rx="5.28768" ry="6.8908" transform="rotate(47.6214 184.739 169.634)" fill="#E5F6F3"/>
<ellipse cx="5.28768" cy="6.8908" rx="5.28768" ry="6.8908" transform="matrix(-0.96325 -0.268607 -0.268607 0.96325 217.737 180.446)" fill="#E5F6F3"/>
<ellipse cx="197.425" cy="165.498" rx="5.83968" ry="5.88459" transform="rotate(47.6214 197.425 165.498)" fill="#E5F6F3"/>
<ellipse cx="208.39" cy="172.244" rx="5.83968" ry="5.88459" transform="rotate(47.6214 208.39 172.244)" fill="#E5F6F3"/>
<path opacity="0.7" d="M37.082 23.5273V24.9219H32.8027V25.8926H36.7129V27.2324H32.8027V28.2578C34.9902 28.251 36.3779 28.2168 37.957 27.957L38.1348 29.3105C36.3574 29.6113 34.7852 29.6387 32.1191 29.6387H31.0527V23.5273H37.082ZM40.7871 22.8301V30.2129H39.0371V22.8301H40.7871ZM40.7871 30.7188V35.1211H32.4473V30.7188H40.7871ZM34.1699 32.0723V33.7266H39.0781V32.0723H34.1699ZM53.0098 22.8301V32.2227H51.2598V31.2383H48.8809V30.0488H51.2598V22.8301H53.0098ZM53.2832 33.6445V35.0391H44.0137V31.3203H45.75V29.666C44.6357 29.7139 43.5762 29.7207 42.6328 29.7207L42.4277 28.3398C44.7109 28.3262 47.7871 28.2988 50.4121 27.9707L50.5078 29.2148C49.5234 29.3789 48.5049 29.4951 47.5 29.5703V31.9355H45.75V33.6445H53.2832ZM46.4746 23.2539C48.2793 23.2402 49.5781 24.1562 49.5781 25.4824C49.5781 26.8086 48.2793 27.6699 46.4746 27.6699C44.6289 27.6699 43.3438 26.8086 43.3438 25.4824C43.3438 24.1562 44.6152 23.2402 46.4746 23.2539ZM46.4746 24.5254C45.5859 24.5254 44.9844 24.8672 44.998 25.4824C44.9844 26.084 45.5859 26.4121 46.4746 26.4121C47.3086 26.4121 47.9102 26.084 47.9238 25.4824C47.9102 24.8672 47.3086 24.5254 46.4746 24.5254ZM60.2422 22.9941C63.0996 22.9941 64.7539 23.7461 64.7676 25.1133C64.7539 26.4941 63.0996 27.2461 60.2422 27.2461C57.3711 27.2461 55.7031 26.4941 55.7031 25.1133C55.7031 23.7461 57.3711 22.9941 60.2422 22.9941ZM60.2422 24.2656C58.4102 24.2656 57.5215 24.5664 57.5352 25.1133C57.5215 25.7285 58.4102 25.9609 60.2422 25.9609C62.0879 25.9609 62.9629 25.7285 62.9629 25.1133C62.9629 24.5664 62.0879 24.2656 60.2422 24.2656ZM65.916 27.834V29.2148H54.5684V27.834H65.916ZM64.5352 29.9395V33.1113H57.6035V33.8633H64.8633V35.1758H55.8945V31.8945H62.8125V31.2109H55.8809V29.9395H64.5352ZM80.3125 22.8164V30.3086H78.5625V22.8164H80.3125ZM80.3125 30.8555V35.2578H78.5625V32.25H71.7539V30.8555H80.3125ZM77.25 23.541V24.9355H74.748C74.7617 26.3916 75.6777 27.9229 77.7148 28.5312L76.8262 29.8848C75.4316 29.4541 74.4473 28.5586 73.8867 27.4238C73.3193 28.6543 72.3076 29.6318 70.8516 30.1172L69.9492 28.7637C72 28.1006 72.957 26.4873 72.9707 24.9355H70.4141V23.541H77.25ZM92.4805 22.8164V29.625H90.7441V27.0273H88.7754V25.6055H90.7441V22.8164H92.4805ZM85.9043 30.1035V31.2793H90.7441V30.1035H92.4805V35.1211H84.1816V30.1035H85.9043ZM85.9043 33.7266H90.7441V32.6191H85.9043V33.7266ZM89.1719 23.377V24.7988H86.7109C86.7793 26.1865 87.668 27.6289 89.5547 28.2441L88.6934 29.584C87.3125 29.126 86.3623 28.2373 85.8223 27.1094C85.2754 28.3604 84.2842 29.3652 82.8145 29.8438L81.9258 28.4766C83.8809 27.8271 84.8174 26.3164 84.9199 24.7988H82.418V23.377H89.1719ZM104.416 24.0195V25.4004H101.9C101.928 26.624 102.83 27.8818 104.812 28.3809L104.047 29.7207C102.611 29.3584 101.613 28.5791 101.053 27.5879C100.499 28.6816 99.501 29.5498 98.0449 29.9531L97.2246 28.5723C99.207 28.0596 100.137 26.7471 100.164 25.4004H97.6621V24.0195H100.164V22.7617H101.928V24.0195H104.416ZM107.191 22.8164V25.6055H108.873V27.041H107.191V29.9121H105.441V22.8164H107.191ZM107.342 30.4453V31.8125H104.184C104.498 32.7285 105.722 33.6172 107.889 33.9043L107.273 35.2305C105.271 34.9639 103.862 34.1641 103.145 33.0977C102.434 34.1572 101.032 34.9365 99.0566 35.2031L98.4277 33.877C100.615 33.6104 101.825 32.749 102.146 31.8125H98.9609V30.4453H107.342ZM112.77 23.6914C114.67 23.6914 116.037 25.4141 116.051 28.1211C116.037 30.8555 114.67 32.5645 112.77 32.5645C110.869 32.5645 109.475 30.8555 109.488 28.1211C109.475 25.4141 110.869 23.6914 112.77 23.6914ZM112.77 25.2637C111.812 25.2637 111.17 26.2754 111.17 28.1211C111.17 29.9805 111.812 30.9785 112.77 30.9785C113.74 30.9785 114.369 29.9805 114.383 28.1211C114.369 26.2754 113.74 25.2637 112.77 25.2637ZM119.236 22.8164V27.5059H121.068V28.9551H119.236V35.2578H117.486V22.8164H119.236ZM132.908 32.3867V33.8086H121.52V32.3867H126.318V30.0898H122.723V23.6094H124.473V25.5371H129.9V23.6094H131.637V30.0898H128.055V32.3867H132.908ZM124.473 28.6953H129.9V26.9316H124.473V28.6953ZM137.611 25.9473C137.611 27.957 138.172 30.0352 139.867 31.1289L138.924 32.4824C137.851 31.833 137.167 30.7666 136.777 29.4883C136.326 30.8965 135.581 32.0723 134.453 32.7559L133.387 31.4707C135.232 30.3223 135.916 28.1348 135.916 26.0293V23.8828H137.611V25.9473ZM144.406 22.8164V35.2578H142.738V22.8164H144.406ZM141.795 22.9941V34.6836H140.168V28.4355H138.555V27.0137H140.168V22.9941H141.795ZM157.107 32.373V33.8086H145.719V32.373H148.262V29.3242C147.298 28.75 146.717 27.8682 146.717 26.7676C146.717 24.7578 148.686 23.418 151.393 23.418C154.086 23.418 156.068 24.7578 156.082 26.7676C156.075 27.8408 155.508 28.7158 154.578 29.2969V32.373H157.107ZM151.393 24.7988C149.615 24.7988 148.439 25.5098 148.439 26.7676C148.439 27.9844 149.615 28.7363 151.393 28.7363C153.156 28.7363 154.346 27.9844 154.359 26.7676C154.346 25.5098 153.156 24.7988 151.393 24.7988ZM149.984 32.373H152.814V29.9531C152.37 30.042 151.892 30.0898 151.393 30.0898C150.894 30.0898 150.422 30.0488 149.984 29.9531V32.373ZM160.648 24.1016L160.471 31.0332H158.721L158.543 24.1016H160.648ZM159.609 34.123C158.967 34.123 158.447 33.6035 158.461 32.9746C158.447 32.3457 158.967 31.8398 159.609 31.8398C160.211 31.8398 160.744 32.3457 160.744 32.9746C160.744 33.6035 160.211 34.123 159.609 34.123Z" fill="white"/>
<path d="M41.8594 47.6406C41.8594 50.7578 44.625 54.1094 49.4531 54.9297L48.1406 57.4141C44.4258 56.6758 41.6602 54.5898 40.2891 51.8359C38.8711 54.5664 36.1055 56.6641 32.4141 57.4141L31.125 54.9297C35.8594 54.0859 38.6484 50.7344 38.6719 47.6406V46.0938H41.8594V47.6406ZM50.1562 61.0703V63.5312H30.6328V61.0703H50.1562ZM62.5078 46.8672C62.4844 53.4531 60.8906 58.9375 52.9219 62.9219L51.2812 60.6719C54.8438 58.9023 56.9648 56.9219 58.1719 54.5547L51.8672 55.1406L51.4922 52.5859L59.0859 52.1172C59.2969 51.2266 59.4492 50.2656 59.5312 49.2578H52.6172V46.8672H62.5078ZM68.2031 44.8281V53.0078H71.2266V55.4688H68.2031V66.1094H65.2031V44.8281H68.2031ZM91.6172 56.7578V59.1953H83.2734V66.1797H80.3203V59.1953H72.0938V56.7578H91.6172ZM81.7969 45.5312C86.3672 45.5312 89.5781 47.4297 89.5781 50.3828C89.5781 53.2891 86.3672 55.1406 81.7969 55.1406C77.2266 55.1406 74.0391 53.2891 74.0625 50.3828C74.0391 47.4297 77.2266 45.5312 81.7969 45.5312ZM81.7969 47.9219C78.9375 47.9219 77.1094 48.8125 77.1328 50.3828C77.1094 51.9062 78.9375 52.7734 81.7969 52.7734C84.6797 52.7734 86.4844 51.9062 86.4844 50.3828C86.4844 48.8125 84.6797 47.9219 81.7969 47.9219ZM110.25 55.8438V58.2109H95.1562V46.3984H110.086V48.8125H98.2031V51.0625H109.594V53.4062H98.2031V55.8438H110.25ZM112.383 61.2344V63.6719H92.8594V61.2344H112.383Z" fill="white"/>
</svg>
