<svg width="226" height="226" viewBox="0 0 226 226" fill="none" xmlns="http://www.w3.org/2000/svg">
<rect width="226" height="226" rx="20" fill="#85D6C2"/>
<mask id="mask0_3101_20963" style="mask-type:alpha" maskUnits="userSpaceOnUse" x="0" y="0" width="226" height="226">
<rect width="226" height="226" rx="20" fill="#85D6C2"/>
</mask>
<g mask="url(#mask0_3101_20963)">
<mask id="mask1_3101_20963" style="mask-type:alpha" maskUnits="userSpaceOnUse" x="-7" y="27" width="241" height="199">
<rect x="-7" y="27" width="240.458" height="199" rx="20" fill="#85D6C2"/>
</mask>
<g mask="url(#mask1_3101_20963)">
<path d="M19.3138 160.982C24.7912 117.648 57.979 124.65 77.7113 141.182L71.0907 193.56C51.9904 208.373 13.3124 208.461 19.3138 160.982Z" fill="#E5F6F3"/>
<path d="M28.5363 162.153C32.5714 130.23 57.6116 135.463 72.5269 147.69L67.6497 186.275C53.2798 197.15 24.1152 197.13 28.5363 162.153Z" fill="#BCEBE8"/>
<path d="M205.516 160.982C200.038 117.648 166.851 124.65 147.118 141.182L153.739 193.56C172.839 208.373 211.517 208.461 205.516 160.982Z" fill="#E5F6F3"/>
<path d="M196.299 162.2C192.257 130.22 167.217 135.457 152.304 147.702L157.19 186.355C171.563 197.252 200.728 197.239 196.299 162.2Z" fill="#BCEBE8"/>
<ellipse cx="113.644" cy="165.471" rx="47.6771" ry="44.775" fill="#E5F6F3"/>
<path d="M60.9916 226C67.0511 212.783 99.8735 207.226 115.527 206.1C146.431 206.1 165.013 219.367 170.442 226H60.9916Z" fill="#D5F0EF"/>
<ellipse cx="113.644" cy="177.494" rx="56.7979" ry="57.6271" fill="#E5F6F3"/>
<ellipse cx="91.2817" cy="181.278" rx="5.31746" ry="6.71773" fill="black"/>
<circle cx="89.7623" cy="179.878" r="1.51928" fill="white"/>
<ellipse cx="136.86" cy="181.197" rx="5.31746" ry="6.63585" fill="black"/>
<circle cx="135.341" cy="179.878" r="1.51928" fill="white"/>
<circle cx="88.2432" cy="183.676" r="24.1066" fill="white" fill-opacity="0.45" stroke="black" stroke-width="8"/>
<line x1="69.1558" y1="203.098" x2="42.5685" y2="231.964" stroke="black" stroke-width="8"/>
</g>
</g>
<path opacity="0.7" d="M26.918 24.457C26.918 26.2754 28.5312 28.2305 31.3477 28.709L30.582 30.1582C28.415 29.7275 26.8018 28.5107 26.002 26.9043C25.1748 28.4971 23.5615 29.7207 21.4082 30.1582L20.6562 28.709C23.418 28.2168 25.0449 26.2617 25.0586 24.457V23.5547H26.918V24.457ZM31.7578 32.291V33.7266H20.3691V32.291H31.7578ZM42.9688 22.8164V35.2852H41.2461V28.6133H39.0586V27.2051H41.2461V22.8164H42.9688ZM38.8535 23.8555V25.2637H34.7793V27.3281H38.4023V28.6953H34.7793V31.0469C36.502 31.0332 37.8828 30.9717 39.4277 30.7324L39.6055 32.127C37.7871 32.4004 36.1602 32.4688 34.0273 32.4688H33.043V23.8555H38.8535ZM54.9863 22.8164V35.2852H53.2227V22.8164H54.9863ZM51.377 23.9102V25.332H47.0703V30.8418C49.2988 30.835 50.666 30.7871 52.2383 30.5L52.4023 31.9355C50.6797 32.2637 49.0938 32.3184 46.4004 32.3184H45.3203V23.9102H51.377ZM61.3711 23.6367L58.1719 35.4902H56.4355L59.6211 23.6367H61.3711ZM73.252 32.3594V33.8086H61.8633V32.3594H73.252ZM72.2949 23.9102V25.3047H70.5449V29.0781H72.2402V30.4453H62.8066V29.0781H64.4746V25.3047H62.752V23.9102H72.2949ZM66.2246 29.0781H68.8223V25.3047H66.2246V29.0781ZM85.3516 32.4414V33.877H73.9629V32.4414H78.7617V30.5684H75.2754V26.3848H82.3164V25.0176H75.2617V23.623H84.0391V27.752H77.0254V29.1465H84.3262V30.5684H80.498V32.4414H85.3516ZM94.2793 23.0625V30.3359H92.625V27.3008H91.2441V25.8926H92.625V23.0625H94.2793ZM89.9863 25.4961C89.9863 26.8086 90.6426 28.1074 92.2422 28.7227L91.3672 30.0625C90.3076 29.6523 89.5898 28.9141 89.166 28.0117C88.708 29.0234 87.9424 29.8506 86.8008 30.3086L85.8848 28.9277C87.5938 28.2852 88.291 26.8633 88.291 25.4824V25.1133H86.3086V23.7188H91.8457V25.1133H89.9863V25.4961ZM96.7539 22.8164V30.4043H95.0996V22.8164H96.7539ZM96.7539 30.8555V35.2578H95.0176V32.2363H88.1543V30.8555H96.7539ZM108.307 29.2422V30.623H99.502V23.7324H108.211V25.1406H101.279V26.4531H107.924V27.8203H101.279V29.2422H108.307ZM109.551 32.3867V33.8086H98.1621V32.3867H109.551ZM121.637 28.3945V29.6934H110.248V28.3945H121.637ZM120.27 30.3086V33.248H113.297V33.959H120.639V35.1484H111.561V32.1406H118.547V31.5117H111.547V30.3086H120.27ZM120.256 23.0352V25.9609H113.406V26.6309H120.475V27.8066H111.67V24.8535H118.506V24.2246H111.643V23.0352H120.256ZM135.609 25.6875V27.0547H127.01V23.2266H135.514V24.6211H128.746V25.6875H135.609ZM136.936 27.7246V29.1055H132.123V29.9258H135.555V33.0977H128.623V33.8359H135.883V35.1621H126.914V31.8809H133.832V31.2109H126.9V29.9258H130.387V29.1055H125.588V27.7246H136.936ZM148.174 22.8164V35.2852H146.438V28.7227H144.428V27.3008H146.438V22.8164H148.174ZM143.73 23.8555V28.5176H139.861V30.9512C141.577 30.9375 143.033 30.876 144.633 30.5957L144.77 32.0176C142.924 32.3184 141.229 32.3867 139.15 32.3867H138.125V27.1367H142.035V25.2637H138.098V23.8555H143.73ZM161.176 32.3867V33.8086H149.787V32.3867H154.586V30.0898H150.99V23.6094H152.74V25.5371H158.168V23.6094H159.904V30.0898H156.322V32.3867H161.176ZM152.74 28.6953H158.168V26.9316H152.74V28.6953ZM165.879 25.9473C165.879 27.957 166.439 30.0352 168.135 31.1289L167.191 32.4824C166.118 31.833 165.435 30.7666 165.045 29.4883C164.594 30.8965 163.849 32.0723 162.721 32.7559L161.654 31.4707C163.5 30.3223 164.184 28.1348 164.184 26.0293V23.8828H165.879V25.9473ZM172.674 22.8164V35.2578H171.006V22.8164H172.674ZM170.062 22.9941V34.6836H168.436V28.4355H166.822V27.0137H168.436V22.9941H170.062ZM185.375 32.373V33.8086H173.986V32.373H176.529V29.3242C175.565 28.75 174.984 27.8682 174.984 26.7676C174.984 24.7578 176.953 23.418 179.66 23.418C182.354 23.418 184.336 24.7578 184.35 26.7676C184.343 27.8408 183.775 28.7158 182.846 29.2969V32.373H185.375ZM179.66 24.7988C177.883 24.7988 176.707 25.5098 176.707 26.7676C176.707 27.9844 177.883 28.7363 179.66 28.7363C181.424 28.7363 182.613 27.9844 182.627 26.7676C182.613 25.5098 181.424 24.7988 179.66 24.7988ZM178.252 32.373H181.082V29.9531C180.638 30.042 180.159 30.0898 179.66 30.0898C179.161 30.0898 178.689 30.0488 178.252 29.9531V32.373ZM188.916 24.1016L188.738 31.0332H186.988L186.811 24.1016H188.916ZM187.877 34.123C187.234 34.123 186.715 33.6035 186.729 32.9746C186.715 32.3457 187.234 31.8398 187.877 31.8398C188.479 31.8398 189.012 32.3457 189.012 32.9746C189.012 33.6035 188.479 34.123 187.877 34.123Z" fill="white"/>
<path d="M31.8594 47.6406C31.8594 50.7578 34.625 54.1094 39.4531 54.9297L38.1406 57.4141C34.4258 56.6758 31.6602 54.5898 30.2891 51.8359C28.8711 54.5664 26.1055 56.6641 22.4141 57.4141L21.125 54.9297C25.8594 54.0859 28.6484 50.7344 28.6719 47.6406V46.0938H31.8594V47.6406ZM40.1562 61.0703V63.5312H20.6328V61.0703H40.1562ZM59.375 44.8281V66.2031H56.4219V54.7656H52.6719V52.3516H56.4219V44.8281H59.375ZM52.3203 46.6094V49.0234H45.3359V52.5625H51.5469V54.9062H45.3359V58.9375C48.2891 58.9141 50.6562 58.8086 53.3047 58.3984L53.6094 60.7891C50.4922 61.2578 47.7031 61.375 44.0469 61.375H42.3594V46.6094H52.3203ZM79.9766 44.8281V66.2031H76.9531V44.8281H79.9766ZM73.7891 46.7031V49.1406H66.4062V58.5859C70.2266 58.5742 72.5703 58.4922 75.2656 58L75.5469 60.4609C72.5938 61.0234 69.875 61.1172 65.2578 61.1172H63.4062V46.7031H73.7891ZM90.9219 46.2344L85.4375 66.5547H82.4609L87.9219 46.2344H90.9219ZM111.289 61.1875V63.6719H91.7656V61.1875H111.289ZM109.648 46.7031V49.0938H106.648V55.5625H109.555V57.9062H93.3828V55.5625H96.2422V49.0938H93.2891V46.7031H109.648ZM99.2422 55.5625H103.695V49.0938H99.2422V55.5625ZM132.031 61.3281V63.7891H112.508V61.3281H120.734V58.1172H114.758V50.9453H126.828V48.6016H114.734V46.2109H129.781V53.2891H117.758V55.6797H130.273V58.1172H123.711V61.3281H132.031ZM147.336 45.25V57.7188H144.5V52.5156H142.133V50.1016H144.5V45.25H147.336ZM139.977 49.4219C139.977 51.6719 141.102 53.8984 143.844 54.9531L142.344 57.25C140.527 56.5469 139.297 55.2812 138.57 53.7344C137.785 55.4688 136.473 56.8867 134.516 57.6719L132.945 55.3047C135.875 54.2031 137.07 51.7656 137.07 49.3984V48.7656H133.672V46.375H143.164V48.7656H139.977V49.4219ZM151.578 44.8281V57.8359H148.742V44.8281H151.578ZM151.578 58.6094V66.1562H148.602V60.9766H136.836V58.6094H151.578ZM171.383 55.8438V58.2109H156.289V46.3984H171.219V48.8125H159.336V51.0625H170.727V53.4062H159.336V55.8438H171.383ZM173.516 61.2344V63.6719H153.992V61.2344H173.516ZM32.7969 77.8906V80.2578H28.4844C28.5312 82.3555 30.0781 84.5117 33.4766 85.3672L32.1641 87.6641C29.7031 87.043 27.9922 85.707 27.0312 84.0078C26.082 85.8828 24.3711 87.3711 21.875 88.0625L20.4688 85.6953C23.8672 84.8164 25.4609 82.5664 25.5078 80.2578H21.2188V77.8906H25.5078V75.7344H28.5312V77.8906H32.7969ZM37.5547 75.8281V80.6094H40.4375V83.0703H37.5547V87.9922H34.5547V75.8281H37.5547ZM37.8125 88.9062V91.25H32.3984C32.9375 92.8203 35.0352 94.3438 38.75 94.8359L37.6953 97.1094C34.2617 96.6523 31.8477 95.2812 30.6172 93.4531C29.3984 95.2695 26.9961 96.6055 23.6094 97.0625L22.5312 94.7891C26.2812 94.332 28.3555 92.8555 28.9062 91.25H23.4453V88.9062H37.8125ZM59.3047 75.8281V97.1562H56.2812V75.8281H59.3047ZM52.9062 78.0547C52.9062 84.5234 50.6328 89.8906 43.0156 93.5L41.4453 91.1094C46.9531 88.5078 49.3789 85.1328 49.8594 80.3984H42.5938V78.0547H52.9062Z" fill="white"/>
</svg>
