<svg width="290" height="240" viewBox="0 0 290 240" fill="none" xmlns="http://www.w3.org/2000/svg">
<rect width="290" height="240" rx="20" fill="#85D6C2"/>
<rect width="290" height="240" rx="20" fill="#85D6C2"/>
<mask id="mask0_3101_20969" style="mask-type:alpha" maskUnits="userSpaceOnUse" x="0" y="0" width="290" height="240">
<rect width="290" height="240" rx="20" fill="#85D6C2"/>
</mask>
<g mask="url(#mask0_3101_20969)">
<path d="M31.7353 161.586C38.3413 109.324 78.3668 117.769 102.165 137.707L94.1799 200.876C71.1444 218.742 24.4975 218.848 31.7353 161.586Z" fill="#E5F6F3"/>
<path d="M42.858 162.999C47.7244 124.499 77.9238 130.81 95.912 145.555L90.0299 192.091C72.6994 205.206 37.526 205.182 42.858 162.999Z" fill="#BCEBE8"/>
<path d="M256.301 161.586C249.695 109.324 209.669 117.769 185.872 137.707L193.856 200.876C216.892 218.742 263.539 218.848 256.301 161.586Z" fill="#E5F6F3"/>
<path d="M245.185 163.055C240.31 124.487 210.111 130.803 192.126 145.57L198.018 192.187C215.352 205.329 250.527 205.313 245.185 163.055Z" fill="#BCEBE8"/>
<ellipse cx="145.5" cy="167" rx="57.5" ry="54" fill="#E5F6F3"/>
<path d="M82 240C89.308 224.06 128.893 217.358 147.772 216C185.042 216 207.453 232 214 240H82Z" fill="#D5F0EF"/>
<ellipse cx="145.5" cy="181.5" rx="68.5" ry="69.5" fill="#E5F6F3"/>
<ellipse cx="118.531" cy="186.064" rx="6.41302" ry="8.10178" fill="black"/>
<circle cx="116.698" cy="184.376" r="1.83229" fill="white"/>
<ellipse cx="173.499" cy="185.966" rx="6.41302" ry="8.00304" fill="black"/>
<circle cx="171.667" cy="184.376" r="1.83229" fill="white"/>
<circle cx="114.866" cy="188.956" r="29.3974" fill="white" fill-opacity="0.45" stroke="black" stroke-width="9"/>
<line x1="91.608" y1="212.16" x2="59.5429" y2="246.974" stroke="black" stroke-width="9"/>
</g>
<path opacity="0.7" d="M36.918 24.457C36.918 26.2754 38.5312 28.2305 41.3477 28.709L40.582 30.1582C38.415 29.7275 36.8018 28.5107 36.002 26.9043C35.1748 28.4971 33.5615 29.7207 31.4082 30.1582L30.6562 28.709C33.418 28.2168 35.0449 26.2617 35.0586 24.457V23.5547H36.918V24.457ZM41.7578 32.291V33.7266H30.3691V32.291H41.7578ZM52.9688 22.8164V35.2852H51.2461V28.6133H49.0586V27.2051H51.2461V22.8164H52.9688ZM48.8535 23.8555V25.2637H44.7793V27.3281H48.4023V28.6953H44.7793V31.0469C46.502 31.0332 47.8828 30.9717 49.4277 30.7324L49.6055 32.127C47.7871 32.4004 46.1602 32.4688 44.0273 32.4688H43.043V23.8555H48.8535ZM64.9863 22.8164V35.2852H63.2227V22.8164H64.9863ZM61.377 23.9102V25.332H57.0703V30.8418C59.2988 30.835 60.666 30.7871 62.2383 30.5L62.4023 31.9355C60.6797 32.2637 59.0938 32.3184 56.4004 32.3184H55.3203V23.9102H61.377ZM71.3711 23.6367L68.1719 35.4902H66.4355L69.6211 23.6367H71.3711ZM83.252 32.3594V33.8086H71.8633V32.3594H83.252ZM82.2949 23.9102V25.3047H80.5449V29.0781H82.2402V30.4453H72.8066V29.0781H74.4746V25.3047H72.752V23.9102H82.2949ZM76.2246 29.0781H78.8223V25.3047H76.2246V29.0781ZM95.3516 32.4414V33.877H83.9629V32.4414H88.7617V30.5684H85.2754V26.3848H92.3164V25.0176H85.2617V23.623H94.0391V27.752H87.0254V29.1465H94.3262V30.5684H90.498V32.4414H95.3516ZM104.279 23.0625V30.3359H102.625V27.3008H101.244V25.8926H102.625V23.0625H104.279ZM99.9863 25.4961C99.9863 26.8086 100.643 28.1074 102.242 28.7227L101.367 30.0625C100.308 29.6523 99.5898 28.9141 99.166 28.0117C98.708 29.0234 97.9424 29.8506 96.8008 30.3086L95.8848 28.9277C97.5938 28.2852 98.291 26.8633 98.291 25.4824V25.1133H96.3086V23.7188H101.846V25.1133H99.9863V25.4961ZM106.754 22.8164V30.4043H105.1V22.8164H106.754ZM106.754 30.8555V35.2578H105.018V32.2363H98.1543V30.8555H106.754ZM118.307 29.2422V30.623H109.502V23.7324H118.211V25.1406H111.279V26.4531H117.924V27.8203H111.279V29.2422H118.307ZM119.551 32.3867V33.8086H108.162V32.3867H119.551ZM131.637 28.3945V29.6934H120.248V28.3945H131.637ZM130.27 30.3086V33.248H123.297V33.959H130.639V35.1484H121.561V32.1406H128.547V31.5117H121.547V30.3086H130.27ZM130.256 23.0352V25.9609H123.406V26.6309H130.475V27.8066H121.67V24.8535H128.506V24.2246H121.643V23.0352H130.256ZM145.609 25.6875V27.0547H137.01V23.2266H145.514V24.6211H138.746V25.6875H145.609ZM146.936 27.7246V29.1055H142.123V29.9258H145.555V33.0977H138.623V33.8359H145.883V35.1621H136.914V31.8809H143.832V31.2109H136.9V29.9258H140.387V29.1055H135.588V27.7246H146.936ZM158.174 22.8164V35.2852H156.438V28.7227H154.428V27.3008H156.438V22.8164H158.174ZM153.73 23.8555V28.5176H149.861V30.9512C151.577 30.9375 153.033 30.876 154.633 30.5957L154.77 32.0176C152.924 32.3184 151.229 32.3867 149.15 32.3867H148.125V27.1367H152.035V25.2637H148.098V23.8555H153.73ZM171.176 32.3867V33.8086H159.787V32.3867H164.586V30.0898H160.99V23.6094H162.74V25.5371H168.168V23.6094H169.904V30.0898H166.322V32.3867H171.176ZM162.74 28.6953H168.168V26.9316H162.74V28.6953ZM175.879 25.9473C175.879 27.957 176.439 30.0352 178.135 31.1289L177.191 32.4824C176.118 31.833 175.435 30.7666 175.045 29.4883C174.594 30.8965 173.849 32.0723 172.721 32.7559L171.654 31.4707C173.5 30.3223 174.184 28.1348 174.184 26.0293V23.8828H175.879V25.9473ZM182.674 22.8164V35.2578H181.006V22.8164H182.674ZM180.062 22.9941V34.6836H178.436V28.4355H176.822V27.0137H178.436V22.9941H180.062ZM195.375 32.373V33.8086H183.986V32.373H186.529V29.3242C185.565 28.75 184.984 27.8682 184.984 26.7676C184.984 24.7578 186.953 23.418 189.66 23.418C192.354 23.418 194.336 24.7578 194.35 26.7676C194.343 27.8408 193.775 28.7158 192.846 29.2969V32.373H195.375ZM189.66 24.7988C187.883 24.7988 186.707 25.5098 186.707 26.7676C186.707 27.9844 187.883 28.7363 189.66 28.7363C191.424 28.7363 192.613 27.9844 192.627 26.7676C192.613 25.5098 191.424 24.7988 189.66 24.7988ZM188.252 32.373H191.082V29.9531C190.638 30.042 190.159 30.0898 189.66 30.0898C189.161 30.0898 188.689 30.0488 188.252 29.9531V32.373ZM198.916 24.1016L198.738 31.0332H196.988L196.811 24.1016H198.916ZM197.877 34.123C197.234 34.123 196.715 33.6035 196.729 32.9746C196.715 32.3457 197.234 31.8398 197.877 31.8398C198.479 31.8398 199.012 32.3457 199.012 32.9746C199.012 33.6035 198.479 34.123 197.877 34.123Z" fill="white"/>
<path d="M41.8594 47.6406C41.8594 50.7578 44.625 54.1094 49.4531 54.9297L48.1406 57.4141C44.4258 56.6758 41.6602 54.5898 40.2891 51.8359C38.8711 54.5664 36.1055 56.6641 32.4141 57.4141L31.125 54.9297C35.8594 54.0859 38.6484 50.7344 38.6719 47.6406V46.0938H41.8594V47.6406ZM50.1562 61.0703V63.5312H30.6328V61.0703H50.1562ZM69.375 44.8281V66.2031H66.4219V54.7656H62.6719V52.3516H66.4219V44.8281H69.375ZM62.3203 46.6094V49.0234H55.3359V52.5625H61.5469V54.9062H55.3359V58.9375C58.2891 58.9141 60.6562 58.8086 63.3047 58.3984L63.6094 60.7891C60.4922 61.2578 57.7031 61.375 54.0469 61.375H52.3594V46.6094H62.3203ZM89.9766 44.8281V66.2031H86.9531V44.8281H89.9766ZM83.7891 46.7031V49.1406H76.4062V58.5859C80.2266 58.5742 82.5703 58.4922 85.2656 58L85.5469 60.4609C82.5938 61.0234 79.875 61.1172 75.2578 61.1172H73.4062V46.7031H83.7891ZM100.922 46.2344L95.4375 66.5547H92.4609L97.9219 46.2344H100.922ZM121.289 61.1875V63.6719H101.766V61.1875H121.289ZM119.648 46.7031V49.0938H116.648V55.5625H119.555V57.9062H103.383V55.5625H106.242V49.0938H103.289V46.7031H119.648ZM109.242 55.5625H113.695V49.0938H109.242V55.5625ZM142.031 61.3281V63.7891H122.508V61.3281H130.734V58.1172H124.758V50.9453H136.828V48.6016H124.734V46.2109H139.781V53.2891H127.758V55.6797H140.273V58.1172H133.711V61.3281H142.031ZM157.336 45.25V57.7188H154.5V52.5156H152.133V50.1016H154.5V45.25H157.336ZM149.977 49.4219C149.977 51.6719 151.102 53.8984 153.844 54.9531L152.344 57.25C150.527 56.5469 149.297 55.2812 148.57 53.7344C147.785 55.4688 146.473 56.8867 144.516 57.6719L142.945 55.3047C145.875 54.2031 147.07 51.7656 147.07 49.3984V48.7656H143.672V46.375H153.164V48.7656H149.977V49.4219ZM161.578 44.8281V57.8359H158.742V44.8281H161.578ZM161.578 58.6094V66.1562H158.602V60.9766H146.836V58.6094H161.578ZM181.383 55.8438V58.2109H166.289V46.3984H181.219V48.8125H169.336V51.0625H180.727V53.4062H169.336V55.8438H181.383ZM183.516 61.2344V63.6719H163.992V61.2344H183.516ZM202.43 46.8906V49.2578H198.117C198.164 51.3555 199.711 53.5117 203.109 54.3672L201.797 56.6641C199.336 56.043 197.625 54.707 196.664 53.0078C195.715 54.8828 194.004 56.3711 191.508 57.0625L190.102 54.6953C193.5 53.8164 195.094 51.5664 195.141 49.2578H190.852V46.8906H195.141V44.7344H198.164V46.8906H202.43ZM207.188 44.8281V49.6094H210.07V52.0703H207.188V56.9922H204.188V44.8281H207.188ZM207.445 57.9062V60.25H202.031C202.57 61.8203 204.668 63.3438 208.383 63.8359L207.328 66.1094C203.895 65.6523 201.48 64.2812 200.25 62.4531C199.031 64.2695 196.629 65.6055 193.242 66.0625L192.164 63.7891C195.914 63.332 197.988 61.8555 198.539 60.25H193.078V57.9062H207.445ZM228.938 44.8281V66.1562H225.914V44.8281H228.938ZM222.539 47.0547C222.539 53.5234 220.266 58.8906 212.648 62.5L211.078 60.1094C216.586 57.5078 219.012 54.1328 219.492 49.3984H212.227V47.0547H222.539Z" fill="white"/>
</svg>
