<svg width="100" height="100" viewBox="0 0 100 100" fill="none" xmlns="http://www.w3.org/2000/svg">
<rect width="100" height="100" rx="10" fill="#85D6C2"/>
<mask id="mask0_3101_20966" style="mask-type:alpha" maskUnits="userSpaceOnUse" x="0" y="0" width="100" height="100">
<rect width="100" height="100" rx="10" fill="#85D6C2"/>
</mask>
<g mask="url(#mask0_3101_20966)">
<path d="M89 65C89 75.4934 80.4934 84 70 84C59.5066 84 51 75.4934 51 65C51 54.5066 59.5066 46 70 46C80.4934 46 89 54.5066 89 65Z" fill="white" fill-opacity="0.45"/>
<path fill-rule="evenodd" clip-rule="evenodd" d="M70 77.24C76.76 77.24 82.24 71.76 82.24 65C82.24 58.24 76.76 52.76 70 52.76C63.24 52.76 57.76 58.24 57.76 65C57.76 71.76 63.24 77.24 70 77.24ZM70 84C80.4934 84 89 75.4934 89 65C89 54.5066 80.4934 46 70 46C59.5066 46 51 54.5066 51 65C51 75.4934 59.5066 84 70 84Z" fill="black"/>
<path fill-rule="evenodd" clip-rule="evenodd" d="M48 100.521L60.428 77L67.0208 80.4835L54.5928 104.005L48 100.521Z" fill="black"/>
</g>
<path d="M19.9062 17.0938C19.9062 19.1719 21.75 21.4062 24.9688 21.9531L24.0938 23.6094C21.6172 23.1172 19.7734 21.7266 18.8594 19.8906C17.9141 21.7109 16.0703 23.1094 13.6094 23.6094L12.75 21.9531C15.9062 21.3906 17.7656 19.1562 17.7812 17.0938V16.0625H19.9062V17.0938ZM25.4375 26.0469V27.6875H12.4219V26.0469H25.4375ZM38.25 15.2188V29.4688H36.2812V21.8438H33.7812V20.2344H36.2812V15.2188H38.25ZM33.5469 16.4062V18.0156H28.8906V20.375H33.0312V21.9375H28.8906V24.625C30.8594 24.6094 32.4375 24.5391 34.2031 24.2656L34.4062 25.8594C32.3281 26.1719 30.4688 26.25 28.0312 26.25H26.9062V16.4062H33.5469ZM51.9844 15.2188V29.4688H49.9688V15.2188H51.9844ZM47.8594 16.4688V18.0938H42.9375V24.3906C45.4844 24.3828 47.0469 24.3281 48.8438 24L49.0312 25.6406C47.0625 26.0156 45.25 26.0781 42.1719 26.0781H40.9375V16.4688H47.8594ZM20.5312 37.5938V39.1719H17.6562C17.6875 40.5703 18.7188 42.0078 20.9844 42.5781L20.1094 44.1094C18.4688 43.6953 17.3281 42.8047 16.6875 41.6719C16.0547 42.9219 14.9141 43.9141 13.25 44.375L12.3125 42.7969C14.5781 42.2109 15.6406 40.7109 15.6719 39.1719H12.8125V37.5938H15.6719V36.1562H17.6875V37.5938H20.5312ZM23.7031 36.2188V39.4062H25.625V41.0469H23.7031V44.3281H21.7031V36.2188H23.7031ZM23.875 44.9375V46.5H20.2656C20.625 47.5469 22.0234 48.5625 24.5 48.8906L23.7969 50.4062C21.5078 50.1016 19.8984 49.1875 19.0781 47.9688C18.2656 49.1797 16.6641 50.0703 14.4062 50.375L13.6875 48.8594C16.1875 48.5547 17.5703 47.5703 17.9375 46.5H14.2969V44.9375H23.875ZM38.2031 36.2188V50.4375H36.1875V36.2188H38.2031ZM33.9375 37.7031C33.9375 42.0156 32.4219 45.5938 27.3438 48L26.2969 46.4062C29.9688 44.6719 31.5859 42.4219 31.9062 39.2656H27.0625V37.7031H33.9375Z" fill="white"/>
</svg>
